<?xml version="1.0" encoding="UTF-8" standalone="no"?>
<!-- Created with Inkscape (http://www.inkscape.org/) -->

<svg
   width="2.5rem"
   height="2.5rem"
   viewBox="0 0 35.789158 35.789158"
   version="1.1"
   id="svg5"
   inkscape:version="1.1.2 (1:1.1+202205011109+08b2f3d93c)"
   sodipodi:docname="menu_mobile.svg"
   xmlns:inkscape="http://www.inkscape.org/namespaces/inkscape"
   xmlns:sodipodi="http://sodipodi.sourceforge.net/DTD/sodipodi-0.dtd"
   xmlns="http://www.w3.org/2000/svg"
   xmlns:svg="http://www.w3.org/2000/svg">
  <sodipodi:namedview
     id="namedview7"
     pagecolor="#ffffff"
     bordercolor="#666666"
     borderopacity="1.0"
     inkscape:pageshadow="2"
     inkscape:pageopacity="0.0"
     inkscape:pagecheckerboard="0"
     inkscape:document-units="mm"
     showgrid="false"
     inkscape:zoom="14.481547"
     inkscape:cx="16.296602"
     inkscape:cy="24.824696"
     inkscape:window-width="1920"
     inkscape:window-height="1016"
     inkscape:window-x="0"
     inkscape:window-y="0"
     inkscape:window-maximized="1"
     inkscape:current-layer="layer1" />
  <defs
     id="defs2" />
  <g
     inkscape:label="Layer 1"
     inkscape:groupmode="layer"
     id="layer1"
     transform="translate(-45.683582,-12.234395)">
    <g
       aria-label="~"
       transform="rotate(15)"
       id="text4823"
       style="font-size:47.5894px;line-height:1.25;font-family:Georgia;-inkscape-font-specification:'Georgia, Normal';stroke-width:1.18974" />
    <g
       aria-label="~"
       transform="rotate(15)"
       id="text952"
       style="font-size:47.5894px;line-height:1.25;font-family:Georgia;-inkscape-font-specification:'Georgia, Normal';stroke-width:1.18974" />
    <path
       id="path852"
       d="m 76.351613,20.191935 q -0.536758,0.746275 -1.614244,1.80474 -1.049028,1.042034 -2.187404,1.699276 -1.394512,0.805121 -2.80341,1.125253 -1.38044,0.303701 -2.816935,-0.08121 -1.616057,-0.433021 -2.836472,-1.265221 -1.214402,-0.854646 -2.186309,-1.716486 -0.988338,-0.890299 -1.984302,-1.662358 -0.973519,-0.766045 -2.09578,-1.066754 -1.50383,-0.40295 -2.768073,0.364906 -1.241797,0.773871 -2.689688,2.406675 L 50.804707,20.63585 q 0.520327,-0.774734 1.585786,-1.788308 1.087903,-1.007561 2.238309,-1.709693 1.127959,-0.708147 2.667127,-1.065543 1.561613,-0.351382 2.930772,0.01548 1.660946,0.445049 2.852903,1.293681 1.220416,0.832201 2.214769,1.700055 1.049659,0.930787 1.910951,1.66676 0.889752,0.719543 2.12424,1.050323 1.571166,0.420993 2.85345,-0.4142 1.304731,-0.829178 2.60431,-2.357381 z m 2e-6,9.715081 q -0.536758,0.746275 -1.614244,1.80474 -1.049028,1.042034 -2.187404,1.699275 -1.394512,0.805122 -2.80341,1.125254 -1.38044,0.3037 -2.816935,-0.08121 -1.616056,-0.433021 -2.836472,-1.265221 -1.214402,-0.854646 -2.186309,-1.716485 -0.988338,-0.8903 -1.984302,-1.662359 -0.973519,-0.766045 -2.095779,-1.066753 -1.503831,-0.402951 -2.768074,0.364905 -1.241797,0.773872 -2.689688,2.406675 l -1.564289,-1.164908 q 0.520328,-0.774734 1.585786,-1.788309 1.087903,-1.00756 2.238309,-1.709693 1.127959,-0.708146 2.667127,-1.065543 1.561613,-0.351382 2.930772,0.01548 1.660947,0.44505 2.852903,1.293681 1.220417,0.832201 2.214769,1.700055 1.049659,0.930787 1.910952,1.666761 0.889751,0.719543 2.124239,1.050323 1.571166,0.420993 2.853451,-0.4142 1.30473,-0.829179 2.60431,-2.357381 z m -10e-7,9.715081 q -0.536758,0.746276 -1.614245,1.80474 -1.049027,1.042034 -2.187404,1.699276 -1.394511,0.805121 -2.80341,1.125253 -1.38044,0.303701 -2.816935,-0.08121 -1.616056,-0.433021 -2.836472,-1.265221 -1.214402,-0.854647 -2.186309,-1.716487 -0.988338,-0.890298 -1.984302,-1.662357 -0.973518,-0.766045 -2.09578,-1.066755 -1.50383,-0.40295 -2.768072,0.364907 -1.241798,0.77387 -2.689688,2.406674 l -1.564289,-1.164908 q 0.520327,-0.774734 1.585785,-1.788308 1.087904,-1.007561 2.238309,-1.709693 1.12796,-0.708147 2.667127,-1.065543 1.561613,-0.351383 2.930772,0.01548 1.660947,0.44505 2.852903,1.293682 1.220416,0.8322 2.214769,1.700054 1.04966,0.930788 1.910952,1.666761 0.889752,0.719543 2.124239,1.050323 1.571166,0.420992 2.853452,-0.4142 1.304729,-0.829178 2.604309,-2.357381 z"
       style="font-size:47.5894px;line-height:1.25;font-family:Georgia;-inkscape-font-specification:'Georgia, Normal';stroke-width:1.18974;fill:#ffffff" />
  </g>
</svg>
