<?xml version="1.0" encoding="UTF-8" standalone="no"?>
<!-- Created with Inkscape (http://www.inkscape.org/) -->

<svg
   width="2.5rem"
   height="2.5rem"
   viewBox="0 0 35.73304 35.73304"
   version="1.1"
   id="svg857"
   inkscape:version="1.1.2 (1:1.1+202205011109+08b2f3d93c)"
   sodipodi:docname="menu_close.svg"
   xmlns:inkscape="http://www.inkscape.org/namespaces/inkscape"
   xmlns:sodipodi="http://sodipodi.sourceforge.net/DTD/sodipodi-0.dtd"
   xmlns="http://www.w3.org/2000/svg"
   xmlns:svg="http://www.w3.org/2000/svg">
  <sodipodi:namedview
     id="namedview859"
     pagecolor="#ffffff"
     bordercolor="#666666"
     borderopacity="1.0"
     inkscape:pageshadow="2"
     inkscape:pageopacity="0.0"
     inkscape:pagecheckerboard="0"
     inkscape:document-units="mm"
     showgrid="false"
     inkscape:zoom="15.763323"
     inkscape:cx="14.210202"
     inkscape:cy="16.145073"
     inkscape:window-width="1920"
     inkscape:window-height="1016"
     inkscape:window-x="0"
     inkscape:window-y="0"
     inkscape:window-maximized="1"
     inkscape:current-layer="text4819" />
  <defs
     id="defs854" />
  <g
     inkscape:label="Layer 1"
     inkscape:groupmode="layer"
     id="layer1"
     transform="translate(-102.14883,-134.81123)">
    <g
       aria-label="x"
       id="text4819"
       style="font-size:54.5906px;line-height:1.25;font-family:Georgia;-inkscape-font-specification:'Georgia, Normal';stroke-width:1.36477">
      <path
         d="m 133.47641,165.81894 h -12.04832 v -1.75927 q 1.1995,-0.13328 2.02583,-0.26655 0.85297,-0.13328 0.85297,-0.69305 0,-0.2399 -0.26655,-0.74635 -0.26656,-0.50646 -0.53311,-0.93295 -0.66639,-1.03957 -1.83924,-2.77218 -1.14619,-1.75927 -2.82549,-4.18492 -1.38609,1.73261 -2.55893,3.38525 -1.17285,1.62599 -2.45231,3.46523 -0.18659,0.26655 -0.39984,0.66639 -0.18659,0.39983 -0.18659,0.63973 0,0.58642 0.74636,0.98626 0.77301,0.37318 2.29238,0.50645 v 1.70596 h -9.72928 v -1.65265 q 1.81258,-0.53311 2.90545,-1.27946 1.11954,-0.77301 2.05248,-1.89255 0.82633,-1.06622 2.29238,-2.93211 1.49271,-1.86589 3.8384,-5.06456 -1.35943,-1.94585 -3.33194,-4.74469 -1.94586,-2.82549 -3.22533,-4.69138 -0.69304,-1.01291 -1.59933,-1.62599 -0.87963,-0.63973 -2.50562,-0.63973 v -1.75927 h 11.43523 v 1.75927 q -0.85297,0 -1.6793,0.10662 -0.82632,0.10662 -0.82632,0.4798 0,0.2399 0.15993,0.53311 0.15994,0.29321 0.39984,0.63974 0.58642,0.90629 1.81258,2.79883 1.25281,1.89255 2.69221,3.99834 0.93294,-1.27947 2.1591,-2.98543 1.25281,-1.70595 2.29238,-3.25198 0.10662,-0.18659 0.21324,-0.45314 0.10663,-0.29321 0.10663,-0.55977 0,-0.55977 -0.93295,-0.87963 -0.90629,-0.34652 -1.73261,-0.4798 v -1.70596 h 9.70262 v 1.65265 q -2.05247,0.53311 -3.19866,1.27946 -1.14619,0.7197 -1.94586,1.6793 -0.87963,1.09288 -2.10579,2.69222 -1.1995,1.59933 -3.38526,4.47813 2.42566,3.41191 3.94503,5.59767 1.51936,2.18576 3.06539,4.50479 0.77301,1.17285 1.70595,1.86589 0.9596,0.66639 2.61225,0.77301 z"
         id="path841"
         style="fill:#ffffff" />
    </g>
  </g>
</svg>
