<?xml version="1.0" encoding="UTF-8" standalone="no"?>
<!-- Created with Inkscape (http://www.inkscape.org/) -->

<svg
   width="150mm"
   height="50mm"
   viewBox="0 0 150 49.999999"
   version="1.1"
   id="svg5"
   inkscape:version="1.2 (1:1.2+202206011326+fc4e4096c5)"
   sodipodi:docname="DRM_logo_new.svg"
   xmlns:inkscape="http://www.inkscape.org/namespaces/inkscape"
   xmlns:sodipodi="http://sodipodi.sourceforge.net/DTD/sodipodi-0.dtd"
   xmlns="http://www.w3.org/2000/svg"
   xmlns:svg="http://www.w3.org/2000/svg">
  <sodipodi:namedview
     id="namedview7"
     pagecolor="#ffffff"
     bordercolor="#666666"
     borderopacity="1.0"
     inkscape:showpageshadow="2"
     inkscape:pageopacity="0.0"
     inkscape:pagecheckerboard="0"
     inkscape:deskcolor="#d1d1d1"
     inkscape:document-units="mm"
     showgrid="false"
     inkscape:zoom="1.4142136"
     inkscape:cx="371.58461"
     inkscape:cy="132.58252"
     inkscape:window-width="1920"
     inkscape:window-height="1016"
     inkscape:window-x="0"
     inkscape:window-y="0"
     inkscape:window-maximized="1"
     inkscape:current-layer="layer1" />
  <defs
     id="defs2" />
  <g
     inkscape:label="Layer 1"
     inkscape:groupmode="layer"
     id="layer1"
     transform="translate(-32.113602,-111.92351)">
    <g
       id="g2090">
      <path
         style="color:#000000;-inkscape-font-specification:'Uni Sans, Heavy';fill:#000000"
         d="m 75.566188,132.13543 v 9.55468 h 0.5 2.085938 c 0.784082,0 1.433764,-0.20478 1.884765,-0.62109 0.451002,-0.41631 0.65625,-1.01568 0.65625,-1.64453 v -5.06836 c 0,-0.63248 -0.217662,-1.22882 -0.673828,-1.63086 -0.456165,-0.40204 -1.098715,-0.58984 -1.867187,-0.58984 z m 1,1 h 1.585938 c 0.607362,0 0.984792,0.14569 1.205078,0.33984 0.220286,0.19415 0.335937,0.45853 0.335937,0.88086 v 5.06836 c 0,0.42595 -0.116219,0.70734 -0.335937,0.91016 -0.219718,0.20281 -0.590396,0.35546 -1.205078,0.35546 h -1.585938 z"
         id="path1070" />
      <path
         style="color:#000000;-inkscape-font-specification:'Uni Sans, Heavy';fill:#000000"
         d="m 71.437282,128.3073 v 0.5 16.73438 h 6.574219 c 1.712494,0.012 3.392664,-0.40333 4.675781,-1.35938 1.283117,-0.95604 2.132812,-2.47954 2.132812,-4.48437 v -5.45703 c 0,-2.02612 -0.846643,-3.56404 -2.128906,-4.53516 -1.282262,-0.97113 -2.963203,-1.39844 -4.675781,-1.39844 z m 1,1 h 5.578125 c 1.543564,0 3.015609,0.39701 4.072266,1.19727 1.056656,0.80026 1.732421,1.9789 1.732421,3.73633 v 5.45703 c 0,1.73285 -0.674666,2.89497 -1.730468,3.68164 -1.055802,0.78667 -2.528618,1.17296 -4.072266,1.16211 h -5.580078 z"
         id="path267" />
      <path
         style="color:#000000;-inkscape-font-specification:'Uni Sans, Heavy';fill:#000000"
         d="m 86.888456,131.81511 c -0.72539,0 -1.451643,0.17246 -2.03711,0.54883 -0.585466,0.37637 -1.03125,1.00948 -1.03125,1.78516 v 5.54883 c 10e-7,0.78209 0.47291,1.40719 1.074219,1.76172 0.60131,0.35453 1.335879,0.5039 2.0625,0.5039 0.729545,0 1.459991,-0.15741 2.054688,-0.51562 0.594696,-0.35821 1.060547,-0.979 1.060547,-1.75 v -5.54883 c 0,-0.80938 -0.475937,-1.45327 -1.087891,-1.81836 -0.611954,-0.36509 -1.358878,-0.51563 -2.095703,-0.51563 z m 0,1 c 0.593148,0 1.186993,0.13621 1.583984,0.37305 0.396991,0.23684 0.59961,0.50913 0.59961,0.96094 v 5.54883 c 0,0.39845 -0.190587,0.66227 -0.576172,0.89453 -0.385586,0.23225 -0.961565,0.37109 -1.539063,0.37109 -0.580421,0 -1.164249,-0.13503 -1.554687,-0.36523 -0.390438,-0.2302 -0.582032,-0.4901 -0.582032,-0.90039 v -5.54883 c 0,-0.41671 0.194648,-0.70061 0.572266,-0.94336 0.377618,-0.24276 0.937372,-0.39063 1.496094,-0.39063 z"
         id="path1074" />
      <path
         style="color:#000000;-inkscape-font-specification:'Uni Sans, Heavy';fill:#000000"
         d="m 86.933376,128.07683 c -1.776101,0 -3.554014,0.47744 -4.919922,1.48242 -1.365908,1.00499 -2.298828,2.57172 -2.298828,4.58985 v 5.54883 c 0,2.00861 0.94164,3.57487 2.3125,4.58203 1.370859,1.00716 3.152453,1.49023 4.929687,1.49023 1.777234,0 3.554627,-0.48259 4.919922,-1.49023 1.365295,-1.00765 2.298828,-2.57445 2.298828,-4.58203 v -5.54883 c 0,-2.00861 -0.939687,-3.57487 -2.310547,-4.58203 -1.370859,-1.00717 -3.154406,-1.49024 -4.93164,-1.49024 z m 0,1 c 1.59356,0 3.182607,0.44666 4.339843,1.29688 1.157237,0.85021 1.902344,2.06924 1.902344,3.77539 v 5.54883 c 0,1.70717 -0.741242,2.92761 -1.892578,3.77734 -1.151336,0.84973 -2.732611,1.29492 -4.326172,1.29492 -1.59356,0 -3.180654,-0.4447 -4.33789,-1.29492 -1.157237,-0.85021 -1.904297,-2.0712 -1.904297,-3.77734 v -5.54883 c 0,-1.71956 0.741856,-2.9385 1.892578,-3.78516 1.150722,-0.84666 2.731477,-1.28711 4.326172,-1.28711 z"
         id="path947" />
      <path
         style="color:#000000;-inkscape-font-specification:'Uni Sans, Heavy';fill:#000000"
         d="m 93.175563,132.13543 v 4.71484 h 0.5 2.40625 c 0.767258,0 1.405985,-0.28859 1.824219,-0.73828 0.418234,-0.44969 0.619141,-1.03854 0.619141,-1.61914 0,-0.5806 -0.200907,-1.1675 -0.619141,-1.61719 -0.418234,-0.44969 -1.056961,-0.74023 -1.824219,-0.74023 z m 1,1 h 1.90625 c 0.52832,0 0.862242,0.17505 1.091797,0.42187 0.229555,0.24682 0.351563,0.58746 0.351563,0.93555 0,0.34809 -0.122008,0.69068 -0.351563,0.9375 -0.229555,0.24682 -0.563477,0.41992 -1.091797,0.41992 h -1.90625 z"
         id="path1078" />
      <path
         style="color:#000000;-inkscape-font-specification:'Uni Sans, Heavy';fill:#000000"
         d="m 89.072048,128.3073 v 17.23438 h 5.15039 v -5.13086 l 3.740235,5.13086 h 0.253906 6.148441 l -4.693363,-5.90821 c 0.795603,-0.37453 1.503113,-0.89082 1.988283,-1.66406 0.61317,-0.97724 0.93164,-2.25093 0.93164,-3.82031 v -0.006 -0.006 c -0.0485,-2.01497 -0.78642,-3.52231 -1.98242,-4.47656 -1.196002,-0.95426 -2.798415,-1.35352 -4.548831,-1.35352 z m 1,1 h 5.988281 c 1.597448,0 2.964352,0.36923 3.923828,1.13477 0.958193,0.76451 1.560863,1.92546 1.605473,3.71289 -0.001,1.43061 -0.28878,2.50766 -0.7754,3.2832 -0.4875,0.77696 -1.171071,1.27543 -2.060542,1.55469 l -0.693359,0.2168 4.234371,5.33203 h -3.824215 l -3.761719,-5.16016 h -1.486328 v 5.16016 h -3.15039 z"
         id="path949" />
      <path
         style="color:#000000;-inkscape-font-specification:'Uni Sans, Heavy';fill:#000000"
         d="m 98.724391,128.3073 v 17.23438 h 0.5 4.605469 v -5.19922 l -0.0234,-0.27539 1.19922,3.0664 h 3.50586 l 1.20118,-3.13672 -0.0273,0.34571 -0.0254,5.19922 h 5.13086 V 128.3073 h -4.93359 l -3.10938,7.17383 -3.08985,-7.17383 z m 1,1 h 3.275389 l 3.74415,8.69336 3.76953,-8.69336 h 3.27734 v 15.23438 h -3.12695 l 0.0215,-4.15821 0.28711,-3.71679 -0.99219,-0.16602 -2.15625,5.63281 h -2.13476 l -2.20704,-5.64453 -0.96289,0.19336 0.31055,3.70313 v 4.15625 h -3.105469 z"
         id="path951" />
      <path
         style="color:#000000;-inkscape-font-specification:'Uni Sans, Heavy';fill:#000000"
         d="m 117.49592,132.89324 -1.44336,5.74609 h 0.64062 3.0625 l -1.35937,-5.74609 z m 0.43359,2.37305 0.5625,2.37304 h -1.1582 z"
         id="path1084" />
      <path
         style="color:#000000;-inkscape-font-specification:'Uni Sans, Heavy';fill:#000000"
         d="m 115.67365,128.3073 -6.01367,17.23438 h 5.47461 l 1.00976,-3.25586 h 3.60157 l 1.05468,3.25586 h 5.47657 l -6.15821,-17.23438 h -0.35351 z m 0.70899,1 h 3.03125 l 5.44335,15.23438 h -3.32812 l -1.05664,-3.25586 h -5.06445 l -1.00977,3.25586 h -3.33008 z"
         id="path968" />
      <path
         id="path970"
         style="color:#000000;-inkscape-font-specification:'Uni Sans, Heavy';fill:#000000"
         d="m 121.17154,128.30707 v 17.23461 h 0.50022 4.60541 v -6.53436 l 0.0605,-0.13758 3.82612,6.67194 h 4.9413 v -17.23461 h -5.08186 v 7.39852 l -0.0822,-0.19534 -4.07986,-7.20318 z m 0.99994,0.99994 h 3.1073 l 3.76204,6.64663 1.52343,3.60339 0.45888,-0.0899 v -0.39481 -0.18965 -0.40205 -0.18965 -2.18488 -1.71979 -5.07876 h 3.08198 v 15.23421 h -3.36155 l -3.51141,-6.12314 -1.57252,-3.59978 -0.38292,0.077 v 3.69848 0.57206 5.37538 h -3.10523 z"
         sodipodi:nodetypes="ccccccccccccccccccccccccccccccccccccc" />
      <path
         style="color:#000000;-inkscape-font-specification:'Uni Sans, Heavy';fill:#000000"
         d="m 130.02319,128.28378 v 4.89844 h 4.08192 v 12.35938 h 5.15039 v -12.35938 l 4.08194,-1e-5 v -0.5 -4.39844 z m 1,1 11.31425,-1e-5 v 2.89844 l -4.08194,1e-5 v 12.35938 h -3.15039 v -12.35938 h -4.08192 z"
         id="path972"
         sodipodi:nodetypes="ccccccccccccccccccc" />
      <path
         style="fill:#000000;stroke:#000000;stroke-width:1;stroke-linecap:butt;stroke-linejoin:miter;stroke-dasharray:none;stroke-opacity:1"
         d="m 71.930353,134.49285 h -4.186644 l -2.557621,2.41992 2.557621,2.41992 h 4.186644 z"
         id="path1435"
         sodipodi:nodetypes="cc" />
      <path
         style="fill:#000000;stroke:#000000;stroke-width:1;stroke-linecap:butt;stroke-linejoin:bevel;stroke-dasharray:none;stroke-opacity:1"
         d="m 107.60469,134.49285 h -1.7639 l 0.91683,1.86712 z"
         id="path1614"
         sodipodi:nodetypes="cccc" />
      <path
         style="fill:#000000;stroke:#000000;stroke-width:1;stroke-linecap:butt;stroke-linejoin:miter;stroke-dasharray:none;stroke-opacity:1"
         d="m 130.35825,134.49277 h -1.49016 l 1.54053,2.27945 z"
         id="path1620"
         sodipodi:nodetypes="cccc" />
      <path
         style="fill:none;stroke:#000000;stroke-width:1;stroke-linecap:butt;stroke-linejoin:miter;stroke-dasharray:none;stroke-opacity:1"
         d="m 127.22791,139.33261 h -1.47553"
         id="path1622"
         sodipodi:nodetypes="cc" />
      <path
         style="fill:#000000;stroke:#000000;stroke-width:1;stroke-linecap:butt;stroke-linejoin:miter;stroke-dasharray:none;stroke-opacity:1"
         d="m 139.2555,134.49285 h 7.228 l 2.55762,2.41992 -2.55762,2.41992 h -7.228 z"
         id="path1656"
         sodipodi:nodetypes="cccccc" />
      <path
         id="rect1683"
         style="stroke:#000000;stroke-linecap:round;stroke-linejoin:round"
         d="m 76.206552,134.49284 h 4.01643 v 4.83984 h -4.01643 z"
         sodipodi:nodetypes="ccccc" />
      <path
         id="rect1685"
         style="stroke:#000000;stroke-linecap:round;stroke-linejoin:round"
         d="m 84.377457,134.49284 h 5.124596 v 4.83984 h -5.124596 z"
         sodipodi:nodetypes="ccccc" />
      <path
         id="rect1687"
         style="stroke:#000000;stroke-linecap:round;stroke-linejoin:round"
         d="m 93.752625,134.49284 h 3.852017 v 1.13251 h -3.852017 z" />
      <path
         style="color:#000000;-inkscape-font-specification:'Uni Sans, Heavy';fill:#000000"
         d="m 93.175563,132.13543 v 4.71484 h 0.5 2.40625 c 0.767258,0 1.405985,-0.28859 1.824219,-0.73828 0.418234,-0.44969 0.619141,-1.03854 0.619141,-1.61914 0,-0.5806 -0.200907,-1.1675 -0.619141,-1.61719 -0.418234,-0.44969 -1.056961,-0.74023 -1.824219,-0.74023 z m 1,1 h 1.90625 c 0.52832,0 0.862242,0.17505 1.091797,0.42187 0.229555,0.24682 0.351563,0.58746 0.351563,0.93555 0,0.34809 -0.122008,0.69068 -0.351563,0.9375 -0.229555,0.24682 -0.563477,0.41992 -1.091797,0.41992 h -1.90625 z"
         id="path1689" />
      <path
         style="fill:#000000;stroke:#000000;stroke-width:0.264583px;stroke-linecap:butt;stroke-linejoin:miter;stroke-opacity:1"
         d="m 117.90412,133.99285 -1.0745,4.10551 2.07039,-0.0796 z"
         id="path1716" />
    </g>
  </g>
</svg>
