<?xml version="1.0" encoding="UTF-8" standalone="no"?>
<!-- Created with Inkscape (http://www.inkscape.org/) -->

<svg
   width="10rem"
   viewBox="0 0 251.09688 131.91393"
   version="1.1"
   id="svg8"
   inkscape:version="1.2 (1:1.2+202206011326+fc4e4096c5)"
   sodipodi:docname="drm_logo.svg"
   inkscape:export-filename="C:\Users\xxSataNxx\Desktop\NEW_DRM.png"
   inkscape:export-xdpi="666"
   inkscape:export-ydpi="666"
   xmlns:inkscape="http://www.inkscape.org/namespaces/inkscape"
   xmlns:sodipodi="http://sodipodi.sourceforge.net/DTD/sodipodi-0.dtd"
   xmlns="http://www.w3.org/2000/svg"
   xmlns:svg="http://www.w3.org/2000/svg"
   xmlns:rdf="http://www.w3.org/1999/02/22-rdf-syntax-ns#"
   xmlns:cc="http://creativecommons.org/ns#"
   xmlns:dc="http://purl.org/dc/elements/1.1/">
  <defs
     id="defs2">
    <clipPath
       clipPathUnits="userSpaceOnUse"
       id="clipPath3887">
      <rect
         style="opacity:0.497;fill:#000000;fill-opacity:0.981343;stroke:none;stroke-width:0.1;stroke-linecap:round;stroke-linejoin:round;stroke-miterlimit:4;stroke-dasharray:none;stroke-dashoffset:0;stroke-opacity:1;paint-order:normal"
         id="rect3889"
         width="568.06146"
         height="601.53772"
         x="-15.026144"
         y="99.852127" />
    </clipPath>
  </defs>
  <sodipodi:namedview
     id="base"
     pagecolor="#ffffff"
     bordercolor="#666666"
     borderopacity="1.0"
     inkscape:pageopacity="0.0"
     inkscape:pageshadow="2"
     inkscape:zoom="4.4170232"
     inkscape:cx="140.36603"
     inkscape:cy="82.974434"
     inkscape:document-units="mm"
     inkscape:current-layer="layer2"
     showgrid="false"
     inkscape:window-width="1920"
     inkscape:window-height="1016"
     inkscape:window-x="0"
     inkscape:window-y="0"
     inkscape:window-maximized="1"
     inkscape:snap-global="false"
     showguides="false"
     inkscape:pagecheckerboard="0"
     inkscape:showpageshadow="2"
     inkscape:deskcolor="#d1d1d1" />
  <metadata
     id="metadata5">
    <rdf:RDF>
      <cc:Work
         rdf:about="">
        <dc:format>image/svg+xml</dc:format>
        <dc:type
           rdf:resource="http://purl.org/dc/dcmitype/StillImage" />
        <dc:title />
      </cc:Work>
    </rdf:RDF>
  </metadata>
  <g
     inkscape:groupmode="layer"
     id="layer2"
     inkscape:label="Logo"
     style="display:inline"
     transform="translate(-22.95157,-39.043094)">
    <path
       style="fill:#ffffff;stroke:none;stroke-width:1px;stroke-linecap:butt;stroke-linejoin:miter;stroke-opacity:1"
       d="m 126.74609,147.56445 41.78516,39.10743 10.53711,8.75 6.78516,5.53515 3.92773,6.96485 2.14453,10.89257 1.60547,2.32227 -0.71289,1.42773 -0.53711,10 -2.14258,9.46485 v 5.17773 l -2.32031,4.28711 2.14258,6.60547 0.89258,4.64453 1.42773,4.64258 0.53711,15.89258 1.25,-6.42969 1.07031,-7.14258 -1.07031,-7.5 -0.71484,-7.67773 0.17773,-13.39258 1.60742,-11.42969 v -3.39258 c 0,-0.89285 4.82227,-9.46484 4.82227,-9.46484 l 1.25,-3.21289 3.21484,0.35742 4.28516,3.92774 8.39258,6.25 3.47265,5.39257 0.94531,2.4375 3.36329,5.76367 2.24023,6.5625 2.88281,6.4043 3.36133,9.28516 3.20898,6.41601 0.47266,5.10938 -0.48047,15.36914 -3.04101,16.00781 -1.76172,11.52539 -1.75977,9.76563 -3.36328,14.56836 -3.52148,16.64843 -1.91993,7.20508 -2.08203,6.88281 -1.60156,5.92383 -3.8418,13.92774 -2.40039,7.52343 -2.40234,8.00391 -2.24023,8.64453 -3.8418,10.72656 -3.04297,7.36329 -3.8418,8.32617 -1.59961,4.96094 -2.52929,2.44726 -0.74805,0.20117 -7.67773,5.89258 -5.89258,3.92969 -0.71485,3.39258 11.60743,-9.64258 5.17773,-1.42969 -0.53516,2.5 -12.32031,9.82227 -8.39453,4.82031 -3.21289,5.17969 -6.60742,3.21289 -7.85742,7.5 -0.71485,3.03711 -3.57031,0.35742 -4.64258,4.82031 -1.42969,2.32227 -3.03515,3.75 -2.5,-0.17969 3.21484,-6.25 2.32031,-1.96289 1.07227,1.25 11.25,-15.53711 -5,5.17969 -8.75,5.35742 -12.85742,9.10742 0.89258,6.96289 1.25,-4.10742 3.21484,-4.28516 1.78516,2.85743 0.53515,3.75 -1.07031,4.82226 -3.57227,5.89258 -4.28515,2.67773 0.35742,3.57227 -0.35742,2.67773 -2.14258,6.07227 v 8.92773 4.64258 l -3.92969,16.60742 -1.25,4.10743 -3.21289,2.32226 -3.92969,18.39258 -1.25,3.39258 -2.85742,12.5 -2.32031,4.82031 -1.07227,3.92969 -13.035152,26.60742 -6.964844,15 3.75,-5 4.822265,-10 14.285161,-29.28711 6.42773,-16.25 3.21484,-16.25 h 2.14258 l 2.85742,-3.57031 4.28516,-13.75 3.39453,-11.60742 0.71289,-13.21485 3.39258,-8.92773 2.32227,-0.17774 1.42773,-3.21484 1.60742,-6.07227 4.64258,-5.89257 6.60742,-5 4.64258,-2.5 6.78711,-4.28516 16.07031,-8.03516 -11.42773,13.75 19.46484,-19.64453 -12.32226,5.53711 1.07226,-3.39258 3.03516,-3.03711 4.82031,-1.96289 4.28711,0.53516 15.53516,-12.32227 4.46484,-0.35742 2.14258,-2.67773 5.53515,-3.57227 4.10743,-2.67773 1.25,2.32226 11.78515,-7.14453 -0.89258,2.32227 13.92969,-7.67774 18.57031,-10.71484 8.39258,-3.03516 -0.17773,0.71289 -17.85742,11.07227 33.21484,-16.42969 3.39258,-0.17773 0.89258,-2.32227 2.85742,-2.85742 17.5,-4.28516 4.46484,-3.57031 2.85547,-0.53711 5.53711,-3.57031 4.82031,0.17773 -13.75,6.07227 13.57227,-4.28711 h 2.02734 l 1.20899,0.23047 0.80664,0.5293 9.98437,11.93945 5.8086,3.03515 4.54492,-2.57031 1.47656,-0.39648 1.14062,0.9375 0.004,2.73633 -0.59961,3.02734 -1.26367,7.24023 3.78906,10.04102 7.57617,5.36914 -7.32422,-7.70508 -1.51562,-7.93945 3.78906,-10.97461 2.5625,-6.94336 1.99219,-1.91211 2.13281,-0.66211 3.78906,1.63477 1.64063,2.33593 -0.63086,2.33399 1.00977,1.98437 5.17773,1.51953 10.35352,2.09961 5.80859,0.46875 2.52539,-0.58398 h -4.04101 l -4.92383,-0.93555 -6.44141,-2.33398 -3.15625,-1.75 -0.125,-0.81836 2.39844,0.34961 4.04101,1.40234 3.0293,0.58203 3.78906,0.35157 2.52539,0.46679 -0.12695,-1.40039 1.38867,-0.35156 0.58203,0.0352 2.52344,1.21484 -0.0742,0.61914 1.38867,0.35156 h 3.28321 l 0.50586,-1.86718 1.41992,-0.4375 2.97266,-0.23047 1.76171,1.07617 0.0508,0.66797 -0.6504,1.37304 0.74805,-0.10937 0.0137,0.16797 4.04102,5.83984 3.53516,1.86719 4.04101,4.66992 -3.2832,-10.50781 -0.97266,-2.46875 0.0781,-1.38672 0.51367,-0.51953 1.10547,0.0117 1.52343,0.18945 -1.79101,-1.09766 -1.33594,-1.46093 -0.55078,-0.99414 -0.9375,-2.06055 0.34766,-8.66016 1.00976,-7.0039 -1.51562,1.16601 -1.51563,-1.40039 -1.64062,-8.01562 c 0.52544,-0.3022 1.33007,-0.17188 1.33007,-0.17188 l 1.81055,0.11328 4.5293,2.94336 2.7168,2.03711 2.37695,4.41406 2.42383,5.15039 0.043,1.59376 2.91015,10.08984 0.33203,1.96289 -1.24609,1.16211 -1.74609,0.35547 -0.74805,2.67969 2.41211,-1.96485 0.83008,0.44727 -0.084,2.76758 -0.99609,1.60742 4.48828,-4.82227 1.24805,-0.44531 0.33203,1.875 -2.32617,2.67773 4.98828,-3.30273 -0.33399,-0.80469 2.99219,-3.30273 3.6582,-2.14258 0.16602,0.80273 1.99414,-1.78515 3.41016,0.17773 7.3164,0.35742 3.99024,1.42774 -3.15821,-2.5 -9.14648,-1.51758 -0.66602,-0.625 0.91602,-1.60742 -2.16211,0.17969 -0.082,-0.80469 1.82812,-2.14258 2.24414,-2.05273 1.33008,1.16015 -0.83203,0.98242 -1.57812,1.33985 4.32421,-1.69727 -0.85546,-0.77734 -0.0937,-1.02344 0.96093,-0.1582 0.95899,1.03906 2.64258,2.40234 4.32226,2.56055 5.76172,2.88281 5.60352,1.67969 4.48242,0.56055 1.60156,0.48047 0.40039,0.88086 0.64063,2.24023 0.24023,5.92383 0.71875,-6.4043 -0.32031,-1.75976 1.36133,-1.60157 1.4414,0.40039 0.32031,1.36133 0.24024,2.24024 0.0801,-4.00196 3.04101,-0.88086 2.64063,-0.71875 2.5625,-0.96093 2.7207,-2.32227 2.48242,-1.91992 2.56055,-3.20313 1.36133,-1.51953 1.20117,0.24024 1.11914,1.11914 0.80078,1.84179 -0.32031,2.08008 0.0312,0.66406 -1.43555,2.63672 3.83789,-2.58984 1.25,1.42969 0.0899,2.14258 -0.80274,3.30273 -4.55469,2.41211 3.66016,-1.07227 2.41211,0.26758 1.875,2.14258 1.16016,2.85742 v 6.25 l 0.80273,20.35742 v 6.42969 l 0.98242,6.42774 -2.85742,15.35742 -0.89258,10.53515 2.5,-11.07031 2.41211,-10.98242 0.53516,-4.73242 -0.71485,-4.91016 0.44727,-9.10742 0.625,-10.80469 1.60742,-5.44531 2.16016,-7.13086 2.55859,-2.08008 5.76367,-3.20117 6.08399,0.80078 5.60156,0.32031 4.96289,1.1211 2.5625,2.24023 1.69531,5.28516 0.12891,3.44726 1.25,30.17969 0.17773,-10.89453 2.5,-13.92773 3.03516,-12.5 1.96484,1.07226 0.89258,1.78516 0.89258,-1.78516 1.96484,-1.07226 3.03516,12.5 2.5,13.92773 0.17773,10.89453 0.8711,-21.02539 0.60156,-2.00391 0.90625,-0.45312 1.81055,1.69726 3.50976,2.49219 2.94141,1.24414 3.96289,1.47266 1.58398,1.58398 0.67969,-0.22656 2.26367,0.33984 1.47266,0.45313 -0.33984,0.79102 0.33984,7.58593 0.67969,-6.90625 1.01758,-1.24414 2.94336,-0.22656 4.86718,-0.11328 4.18946,-0.56641 0.76757,1.75977 0.37891,7.7207 -0.71484,4.91016 0.53515,4.73242 2.41211,10.98242 2.5,11.07031 -0.89258,-10.53515 -2.85742,-15.35742 0.98242,-6.42774 v -6.42969 l 0.80274,-20.35742 v -6.25 l 1.16015,-2.85742 1.875,-2.14258 2.41211,-0.26758 3.66016,1.07227 -4.55469,-2.41211 -0.80273,-3.30273 0.0898,-2.14258 1.25,-1.42969 3.83789,2.58984 -4.375,-8.03515 v -7.85742 l -1.69531,-0.26758 1.60742,-1.69727 -4.01953,-4.01758 -0.53516,0.80274 -2.05273,-3.57031 0.625,6.25 0.0879,3.48242 1.07227,2.05273 -1.16016,1.25 -1.42969,-0.80273 -0.80273,-2.23242 0.53515,-3.66016 -0.26757,-5.625 -0.44727,-10.26953 0.53711,-8.39258 -1.07227,-8.30273 2.94727,8.83984 -0.98242,9.55273 0.89258,3.48243 3.66015,5.625 2.85742,-1.25 1.42969,-0.80469 1.76953,1.54101 0.24805,0.58203 -0.16992,1.10352 0.90625,-0.79297 1.1875,-0.5664 1.52539,-0.35938 h 1.63477 l 4.79687,0.50586 3.1582,1.38867 1.89258,2.52539 -0.12695,2.65235 2.52539,3.15625 3.91406,4.79882 1.64063,3.0293 -0.37891,4.04102 -2.77734,5.93359 2.77734,-3.0293 3.03125,-4.67187 2.52539,-3.15625 1.89453,0.5039 1.64063,1.13672 3.53515,1.13672 7.44922,1.89453 -8.33203,-3.41015 -1.13867,-2.39844 v -1.26367 l 1.01172,-0.63086 2.90429,0.25195 4.16602,1.13672 4.54492,3.41016 -1.76562,-2.65235 0.12695,-1.64062 1.00977,-1.51563 h 1.76757 l 1.66211,-0.43945 1.4336,-0.32422 1.06054,0.47266 0.47852,0.91992 -0.83203,3.21289 -1.08203,0.98242 4.32422,1.69727 -1.57813,-1.33985 -0.83203,-0.98242 1.33008,-1.16015 2.24414,2.05273 1.82812,2.14258 -0.082,0.80469 -2.16015,-0.17969 0.91601,1.60742 -0.66601,0.625 -9.14649,1.51758 -3.1582,2.5 3.99023,-1.42774 7.31641,-0.35742 3.41016,-0.17773 1.99414,1.78515 0.16406,-0.80273 3.6582,2.14258 2.99219,3.30273 -0.33594,0.80469 4.98828,3.30273 -2.32617,-2.67773 0.33594,-1.875 1.24609,0.44531 4.48828,4.82227 -0.99414,-1.60742 -0.084,-2.76758 0.83008,-0.44727 2.41211,1.96485 -0.74805,-2.67969 -1.74609,-0.35547 -1.2461,-1.16211 0.33008,-1.96289 2.91016,-10.08984 0.0723,-2.62891 1.44531,-4.79492 2.03711,-3.39453 3.84961,-3.9629 3.6211,-1.69726 2.49023,0.22656 1.19141,2.73047 -1.11719,5.45703 -1.51563,1.40039 -1.51562,-1.16601 1.00977,7.0039 0.50585,12.60938 -2.52539,5.83789 -3.2832,10.50781 4.04102,-4.66992 3.53515,-1.86719 4.04102,-5.83984 2.36523,-9.80469 2.52539,-7.24023 0.75782,-11.90821 -3.28321,-11.44336 3.0293,3.97071 2.7793,7.47265 3.02929,8.8711 -1.00976,5.83984 4.29297,-4.66992 0.51367,-5.38477 0.55664,-1.14257 2.60351,0.11328 5.09375,0.11328 4.98047,-1.58399 4.98047,-4.41601 2.37695,-2.7168 1.05274,-0.0898 2.5,2.38086 3.78711,5.01953 -2.52539,4.20312 4.29297,8.875 2.01953,0.9336 -0.75781,2.80273 3.2832,9.10547 3.78906,10.97461 -1.51562,7.93945 -7.32422,7.70508 7.57617,-5.36914 3.78906,-10.04102 -1.26367,-7.24023 -2.52539,-9.10547 1.76758,-0.4668 2.77929,3.26758 4.54493,2.57031 5.80859,-3.03515 10.61914,-12.69922 h 3.40625 l 13.57422,4.28711 -13.75,-6.07227 4.82031,-0.17773 5.53711,3.57031 2.85547,0.53711 4.46484,3.57031 17.5,4.28516 2.85743,2.85742 0.89257,2.32227 3.39258,0.17773 33.21485,16.42969 -17.85743,-11.07227 -0.17773,-0.71289 8.39258,3.03516 18.57031,10.71484 13.92969,7.67774 -0.89258,-2.32227 11.78516,7.14453 1.25,-2.32226 4.10742,2.67773 5.53515,3.57227 2.14258,2.67773 4.46485,0.35742 15.53515,12.32227 4.28711,-0.53516 4.82031,1.96289 3.03516,3.03711 1.07227,3.39258 -12.32227,-5.53711 19.46484,19.64453 -11.42773,-13.75 16.07031,8.03516 6.78711,4.28516 4.64258,2.5 6.60742,5 4.64258,5.89257 1.60742,6.07227 1.42774,3.21484 2.32226,0.17774 3.39258,8.92773 0.71289,13.21485 3.39453,11.60742 4.28516,13.75 2.8575,3.57031 h 2.1425 l 3.2149,16.25 6.4277,16.25 14.2852,29.28711 4.8222,10 3.75,5 -6.9648,-15 -13.0352,-26.60742 -1.0722,-3.92969 -2.3203,-4.82031 -2.8575,-12.5 -1.25,-3.39258 -3.9296,-18.39258 -3.2129,-2.32226 -1.25008,-4.10743 -3.92969,-16.60742 v -4.64258 -8.92773 l -2.14258,-6.07227 -0.35742,-2.67773 0.35742,-3.57227 -4.28515,-2.67773 -3.57227,-5.89258 -1.07031,-4.82226 0.53516,-3.75 1.78515,-2.85743 3.21485,4.28516 1.25,4.10742 0.89257,-6.96289 -12.85742,-9.10742 -8.75,-5.35742 -5,-5.17969 11.25,15.53711 1.07227,-1.25 2.32031,1.96289 3.21484,6.25 -2.5,0.17969 -3.03515,-3.75 -1.42969,-2.32227 -4.64258,-4.82031 -3.57031,-0.35742 -0.71484,-3.03711 -7.85743,-7.5 -6.60742,-3.21289 -3.21289,-5.17969 -8.39453,-4.82031 -12.32031,-9.82227 -0.53516,-2.5 5.17774,1.42969 11.60742,9.64258 -0.71485,-3.39258 -5.89257,-3.92969 -7.67774,-5.89258 -0.17969,-0.0488 -2.6875,-2.5996 -1.59961,-4.96094 -3.84179,-8.32617 -3.04297,-7.36329 -3.8418,-10.72656 -2.24023,-8.64453 -2.40235,-8.00391 -2.40039,-7.52343 -3.84179,-13.92774 -1.60157,-5.92383 -2.08203,-6.88281 -1.91992,-7.20508 -3.52148,-16.64843 -3.36328,-14.56836 -1.75977,-9.76563 -1.76172,-11.52539 -3.04101,-16.00781 -0.48047,-15.36914 0.47265,-5.10938 3.20899,-6.41601 3.36133,-9.28516 2.88281,-6.4043 2.24023,-6.5625 3.36328,-5.76367 1.56641,-4.03711 2.44141,-3.79296 8.39257,-6.25 4.28516,-3.92774 3.21484,-0.35742 1.25,3.21289 c 0,0 4.82227,8.57198 4.82227,9.46484 v 3.39258 l 1.60742,11.42969 0.17774,13.39258 -0.71485,7.67773 -1.07031,7.5 1.07031,7.14258 1.25,6.42969 0.53711,-15.89258 1.42774,-4.64258 0.89257,-4.64453 2.14258,-6.60547 -2.32031,-4.28711 v -5.17773 l -2.14258,-9.46485 -0.53711,-10 -0.71289,-1.42773 1.60547,-2.32227 2.14453,-10.89257 3.92774,-6.96485 6.78515,-5.53515 10.53711,-8.75 41.78516,-39.10743 -37.5,31.96485 -8.03516,5.71484 -2.32226,0.53516 -7.32227,4.10742 -5.89258,3.92773 8.92969,-2.5 -22.85742,14.64258 -9.28516,6.25 -3.21484,-0.71289 -11.78516,8.03516 -5,3.75 -2.85742,3.39258 13.75,-6.96485 2.67773,-0.71289 -0.89257,1.42774 -2.32227,1.60742 -6.78516,5.17773 -9.10742,3.92969 -5.35742,1.25 -2.5,-0.17969 -19.28516,13.39258 -13.39257,9.46484 -10.89258,9.28516 -8.21485,6.96484 -3.03515,3.21485 -0.89258,-1.07227 1.96289,-3.75 3.03711,-4.64258 2.67773,-2.14257 -14.64257,6.07226 1.07226,2.14258 -0.17969,1.78516 -2.67773,0.53515 -9.28711,1.96485 -11.96289,-0.89258 1.78516,-2.85742 1.25,-1.60743 -10,-0.17773 -10.35743,-0.89258 6.42969,2.14258 1.42774,1.96289 0.71484,1.96484 -1.42969,1.78516 -7.5,-0.35547 -11.96289,-3.39453 -8.21484,-3.57031 -5.53516,-4.64258 -5,-1.07227 -4.82226,-3.75 -6.60743,-1.96484 -2.5,-0.53516 -4.28515,3.39258 -7.32227,-0.17773 -4.46289,-1.42969 1.60547,-3.03516 -7.5,-1.78515 -15.53516,6.42773 -1.78515,1.96485 -7.67969,0.53515 -2.85547,2.5 -2.67969,-2.85742 -7.67773,-1.78516 -0.35742,-1.07031 0.89258,-1.96484 5.53515,-3.39258 -6.42773,2.14258 -11.60742,7.32031 -5.71485,3.57227 -5.53515,-0.17774 -6.25,3.21289 -8.03516,2.5 -25.82227,14.10742 -6.25,2.85743 -7.67773,3.21484 -8.03711,5 -8.39258,5.71289 -4.26172,3.78125 -0.0215,-0.0312 -1.78516,-3.92773 0.35742,-5.89258 -0.71289,-5.17969 1.60743,-1.60547 2.67773,-3.21484 -1.25,-1.78516 -3.21484,-0.53711 -2.5,-1.96289 -0.53516,-2.5 -0.35742,-1.25 -2.32227,0.89258 -2.5,1.25 -2.5,-1.25 -2.32031,-0.89258 -0.36133,1.25 -0.5332,2.5 -2.5,1.96289 -3.21485,0.53711 -1.25,1.78516 2.67579,3.21484 1.60937,1.60547 -0.71289,5.17969 0.35742,5.89258 -1.78515,3.92773 -0.0234,0.0312 -4.26172,-3.78125 -8.39258,-5.71289 -8.03711,-5 -7.67773,-3.21484 -6.24805,-2.85743 h -0.002 l -0.0117,-0.006 -26.0625,-14.10156 -8.03516,-2.5 -6.25,-3.21289 -5.53515,0.17774 -5.71485,-3.57227 -11.60742,-7.32031 -6.42773,-2.14258 5.53515,3.39258 0.89258,1.96484 -0.35937,1.07031 -7.67774,1.78516 -2.67969,2.85742 -2.85546,-2.5 -7.67969,-0.53515 -1.78516,-1.96485 -15.53515,-6.42773 -7.5,1.78515 1.60546,3.03516 -4.46289,1.42969 -7.32226,0.17773 -4.28516,-3.39258 -2.5,0.53516 -6.60742,1.96484 -4.82227,3.75 -5,1.07227 -5.53515,4.64258 -8.21485,3.57031 -11.96289,3.39453 -7.5,0.35547 -1.42968,-1.78516 0.71484,-1.96484 1.42773,-1.96289 6.42969,-2.14258 -10.35742,0.89258 -10,0.17773 1.25,1.60743 1.78516,2.85742 -11.96289,0.89258 -9.28711,-1.96485 -2.67774,-0.53515 -0.17969,-1.78516 1.07227,-2.14258 -14.64258,-6.07226 2.67774,2.14257 3.03711,4.64258 1.96289,3.75 -0.89258,1.07227 -3.03516,-3.21485 -8.21484,-6.96484 -10.89258,-9.28516 -13.39258,-9.46484 -19.28515,-13.39258 -2.5,0.17969 -5.35743,-1.25 -9.10742,-3.92969 -6.78515,-5.17773 -2.32227,-1.60742 -0.89258,-1.42774 2.67774,0.71289 13.75,6.96485 -2.85743,-3.39258 -5,-3.75 -11.78515,-8.03516 -3.21485,0.71289 -9.28515,-6.25 -22.85742,-14.64258 8.92968,2.5 -5.89257,-3.92773 -7.32227,-4.10742 -2.32227,-0.53516 -8.03515,-5.71484 z m 107.32227,90.17969 4.82031,1.25 5.17969,3.92774 2.67773,3.21484 -1.42773,1.96289 8.75,9.82227 2.85742,1.42773 -4.46484,0.71484 7.85742,5.17969 5,7.32031 2.32031,0.17969 2.32227,0.17774 3.75,4.46484 2.67773,8.75 -1.60742,4.10742 -2.83203,0.90039 -4.48242,0.25 -5.76172,-1.60156 -6.24414,-2.7207 -3.52149,-2.40235 -7.04492,-6.5625 -5.2832,-9.92578 -5.44141,-13.76758 -2.95117,-8.08984 -0.6543,-5.45899 1.01367,-2.41015 z m 654.38867,0 2.95313,0.84375 0.64062,1.52149 -0.91406,7.63476 0.16406,-0.28711 -2.53711,6.95703 -5.4414,13.76758 -5.28321,9.92578 -7.04492,6.5625 -3.52148,2.40235 -6.24414,2.7207 -5.76172,1.60156 -4.97657,-0.27734 -2.74609,-0.87305 -1.60742,-4.10742 2.67773,-8.75 3.75,-4.46484 2.32227,-0.17774 2.32031,-0.17969 5,-7.32031 7.85742,-5.17969 -4.46484,-0.71484 2.85742,-1.42773 8.75,-9.82227 -1.42773,-1.96289 2.67773,-3.21484 5.17969,-3.92774 z m -502.24609,22.85547 h 2.85742 l 0.53516,1.42969 -0.53516,1.78515 1.25,1.96485 20.89258,10.17773 3.21484,-1.07031 5.71289,-0.89258 -4.64258,-3.03711 0.53516,-1.07031 5,0.53516 -6.25,-4.10743 -2.32031,-1.96484 0.89258,-1.07031 8.92773,3.39258 6.50195,5.17968 1.20899,2.20703 -1.43946,2.72266 -2.72265,5.76172 -4.16211,6.4043 -3.36133,1.76171 -4.18945,1.12305 -3.47071,0.15235 -3.5371,-1.63477 -1.96485,2.32227 -1.5918,0.91796 -1.47265,0.33985 -4.98047,-2.49024 c 0,0 -4.86753,-3.17017 -5.32031,-3.50976 -0.0158,-0.0119 -0.13383,-0.11178 -0.15821,-0.13086 l -2.21093,-3.57422 -0.71875,-3.12109 0.48047,-2.80274 1.51953,-1.35937 0.95117,-0.76172 0.46094,-0.40039 -0.35743,-4.28516 -3.57031,-2.14453 -2.67969,-3.57031 -1.42773,-2.85742 z m 347.24804,0 h 2.85743 l 2.14257,2.32227 -1.42773,2.85742 -2.67969,3.57031 -3.57031,2.14453 -0.01,0.10742 -1.54687,1.16016 0.67969,2.15039 0.33789,2.83008 -0.67774,3.62304 -1.35937,3.84766 -1.4707,3.39649 -1.35938,1.58398 -2.49023,1.92578 -1.35743,1.69727 c 0,0 -1.47299,0.7928 -1.92578,0.5664 -0.14614,-0.0731 -0.6613,-0.23739 -1.0957,-0.38281 l -3.08789,-3.65039 -3.53711,1.63477 -4.45703,-0.19532 -0.95313,-0.34961 -2.37695,-1.92383 -0.9043,-2.15039 c 0,0 0.11133,-1.81291 0.11133,-2.3789 0,-0.56599 2.60352,-3.28125 2.60352,-3.28125 l 4.18945,-4.18946 4.04297,-2.93359 18.07226,-8.80273 1.25,-1.96485 -0.53515,-1.78515 z m -24.28515,2.67969 0.89258,1.07031 -2.32032,1.96484 -6.25,4.10743 5,-0.53516 0.53516,1.07031 -4.64258,3.03711 0.62695,0.0977 0.28711,1.72656 -0.33984,2.26367 -1.24609,1.35742 -2.15039,1.13282 -2.26368,-0.11329 -2.03711,-0.79296 -1.01953,-2.60352 -0.11328,-2.26367 0.67969,-2.7168 2.47461,-3.05273 2.95898,-2.35742 z m -328.32031,7.67773 h 1.78515 l 3.41992,5.64063 c 0.56166,1.41179 1.19141,3.06445 1.19141,3.06445 l 0.96094,2.96094 -0.24024,0.88086 -0.56054,0.24023 -0.88086,-0.24023 c -1.01431,-0.96636 -3.87549,-3.69791 -4.25782,-4.17579 -0.17614,-0.21969 -0.65719,-1.07422 -1.1621,-1.99414 l -0.79102,-4.58984 z m 73.92773,1.78711 5,0.35547 3.39453,3.21484 4.46289,3.03516 0.89258,1.60742 -1.25,1.60742 -2.14258,0.17969 -6.42773,-1.78711 -5.53516,-2.67773 -2.14453,-1.96485 v -2.14257 z m 212.96484,0 3.75,1.42774 v 2.14257 l -2.14453,1.96485 -5.53515,2.67773 -6.42774,1.78711 -2.14258,-0.17969 -1.25,-1.60742 0.89258,-1.60742 4.46289,-3.03516 3.39453,-3.21484 z m 73.58985,0.13086 0.46484,2.23242 -0.38867,2.25781 -0.98047,1.73633 -2.15234,1.35742 -1.81055,2.26368 -1.92383,2.83007 -1.69726,2.60352 -1.35938,0.79297 -0.22656,-1.2461 1.13281,-1.81054 1.13086,-1.92383 1.92578,-2.60352 1.24414,-2.37695 0.90625,-2.03906 1.69727,-3.05469 z m -50.59961,1.92383 1.24609,0.22656 1.13086,1.92383 0.79297,1.92578 v 2.15039 l -0.56641,2.15039 -1.13086,1.92383 -1.58593,1.69922 -3.28125,2.71679 -2.15235,1.92383 c 0,0 -0.59497,0.0663 -1.125,0.043 l -0.39257,-0.70312 -0.83008,1.07031 -1.49805,22.67969 -0.33008,-12.5 -0.99609,2.85742 v -13.03711 l -0.5,-1.42773 -2.16016,-2.32227 -1.49804,-2.67773 -0.49805,-1.42774 -1.16406,-0.17969 v 1.96485 l -1.33008,0.89258 -1.16407,-0.89258 -1.66406,-3.60157 0.55274,-1.65625 1.34179,-0.95898 6.52539,-2.17578 10.35743,-1.60742 0.98242,-0.78321 z m 15.39453,0.22656 1.47266,0.11328 1.24414,0.79297 -0.45118,2.03711 -1.92578,1.13281 -1.69726,-0.79297 -0.79297,-1.58398 0.56641,-1.24609 z m -227.41992,0.57422 2.67773,0.17969 3.57227,1.60742 3.92773,0.17773 4.64258,0.89258 2.5,3.03711 12.375,3.72266 2.91016,1.1875 1.5625,0.98437 0.15429,0.17774 0.0176,0.20117 -0.12109,0.12695 -1.00196,0.5625 h -0.002 -0.002 l -3.92969,3.21485 -2.5,6.78515 -1.78516,2.67969 -3.92968,-2.14258 -2.67774,-4.10742 -0.89258,-3.92969 0.60352,18.41406 -0.20703,2.16797 -0.31055,0.20508 -0.45312,-0.24805 -0.99219,-1.95312 -4.11523,-3.53516 1.64648,3.0293 0.70508,3.41016 -1.0586,0.63085 -1.17382,-1.38867 -10.69922,-9.4707 -2.82227,-2.27148 -0.23437,-1.51563 1.05859,-1.00976 4.23242,2.27148 -4.35156,-3.53516 -9.16992,-5.05078 -5.75977,-6.5664 2.23242,5.55664 0.58789,4.16601 -1.05859,4.79883 -2.70312,5.55664 -2.58594,4.16602 -2.11719,0.88476 -1.76172,-1.39062 -0.66992,-1.29297 -0.13477,-2.99219 -1.16406,4.19531 -0.082,4.64258 -0.83203,1.96485 h -0.66602 l -0.74609,-1.60743 v -5.53515 l 1.16211,-4.82227 1.16406,-8.30273 0.74805,-0.625 -1.33008,-1.60742 0.33399,-1.96485 1.49414,-4.28515 v -1.33985 l 1.39453,-1.69726 3.22851,-0.34766 4.28516,1.6875 8.21484,4.64453 3.03516,-1.07226 -3.39258,-3.39258 -1.42773,-3.21485 2.32031,-2.14257 3.39258,0.35742 1.60742,1.25 1.07226,-1.07227 6.60743,-0.89258 -5.89258,-0.35742 -1.60742,-0.89258 z m 165.10547,0 0.89257,1.96484 -1.60742,0.89258 -5.89258,0.35742 6.60743,0.89258 1.07226,1.07227 1.60742,-1.25 3.39258,-0.35742 2.32031,2.14257 -1.42773,3.21485 -3.39258,3.39258 3.03516,1.07226 8.21484,-4.64453 0.64649,-0.25586 -1.10938,1.86328 -4.51758,5.15039 -9.16992,5.05078 -4.35156,3.53516 4.23242,-2.27148 1.05859,1.00976 -0.23437,1.51563 -2.82227,2.27148 -10.69921,9.4707 -1.17383,1.38867 -1.0586,-0.63085 0.70508,-3.41016 1.64649,-3.0293 -3.46094,2.97266 -1.61133,1.23242 -0.2832,-0.39648 -0.11133,-0.79102 -0.27149,-2.43555 0.51563,-15.63281 -0.89258,3.92969 -2.67969,4.10742 -3.92968,2.14258 -1.78516,-2.67969 -2.5,-6.78515 -3.92969,-3.21485 -1.00586,-0.5625 -0.11718,-0.12695 0.0176,-0.20117 0.15235,-0.17579 1.56445,-0.98632 3.19922,-1.30664 11.83398,-3.60352 2.5,-3.03711 4.64258,-0.89258 3.92774,-0.17773 3.57226,-1.60742 z m -209.98047,1.02148 h 4.00195 l 2.40039,1.43946 0.64063,2.88281 -3.36133,2.56055 -4.16211,0.32031 -1.60156,-1.44141 v -3.36133 z m -56.10742,0.33203 0.0488,0.01 2.45704,0.89258 0.67773,1.01953 0.90625,1.81055 -2.15039,0.5664 -4.5293,-1.24609 -1.4707,-1.01758 0.67969,-0.67969 0.90429,-0.45312 z m 357.96289,0.0527 0.21093,0.2832 0.22657,1.47266 -0.9043,2.15039 -2.49219,2.94336 -2.26367,1.24414 -0.9043,-0.22656 0.22657,-1.81055 1.24414,-2.60352 1.58398,-1.81054 1.95898,-1.36328 z m -495.75977,0.14062 1.60156,2.24024 0.004,0.006 3.35742,7.19922 3.20313,8.16406 0.47851,1.75976 2.5625,4.80274 4.00195,11.20703 3.68165,6.72266 4.20703,8.92383 -0.84571,1.1621 -1.27929,1.1211 -4.16211,1.76172 -4.48242,1.59961 -3.84375,0.32031 -4.48243,-0.16016 -5.28125,-2.24023 -3.52343,-2.72266 -1.59961,-4.80273 -0.80078,-5.60156 2.56054,-8.16602 1.98633,-4.69922 -1.3457,-0.74219 v -1.28125 l 1.28125,-0.32031 0.23437,-0.67187 -0.55469,-3.49024 1.44141,-4.48242 0.80078,-6.4043 0.95899,-3.84179 v -2.56055 l -0.95899,-0.96094 0.31836,-3.52148 z m 643.07227,0 0.48047,0.32032 0.31835,3.52148 -0.95898,0.96094 v 2.56055 l 0.95898,3.84179 0.80079,6.4043 1.4414,4.48242 -0.55469,3.49024 0.23438,0.67187 1.28125,0.32031 v 1.28125 l -1.3457,0.74219 1.98632,4.69922 2.56055,8.16602 -0.80078,5.60156 -1.59961,4.80273 -3.52344,2.72266 -5.28125,2.24023 -4.48242,0.16016 -3.84375,-0.32031 -4.48242,-1.59961 -4.16211,-1.76172 -1.2793,-1.1211 -0.8457,-1.1621 4.20703,-8.92383 3.68164,-6.72266 4.00196,-11.20703 2.5625,-4.80274 0.47851,-1.75976 3.20313,-8.16406 3.35742,-7.19922 0.004,-0.006 z m -439.24414,0.43555 2.40234,0.79883 1.12109,1.12109 -1.12109,2.5625 -2.5625,0.16016 -1.2793,-1.76172 -0.80078,-1.60156 z m 304.44726,0.48438 2.93164,1.2832 16.60742,3.75 8.92774,1.07227 3.03515,0.35742 7.67969,-0.17969 2.32031,0.71484 -0.71289,1.60743 -8.03711,0.35742 9.82227,1.96289 3.57031,-1.07031 -3.75,3.39257 -8.57031,8.57227 -8.03516,6.42773 h -2.32226 l 1.78515,-3.21484 10.17969,-9.46289 -4.46484,1.96289 h -3.75 l -9.64258,6.07227 8.39258,-2.85743 -6.25,6.96485 0.30859,6.8164 -0.1289,1.89063 -0.36133,1.76172 -1.30469,0.74609 -4.80664,0.44141 -3.0293,-1.39844 -1.00976,-4.90625 c 0,0 -2.0211,-5.8355 -3.03125,-6.76953 -1.01016,-0.93403 -3.28321,-6.53906 -3.28321,-6.53906 l -0.5039,0.69921 -3.28321,-0.46484 v -2.33594 l 2.77735,-0.70117 4.04101,1.16797 7.07032,9.10742 -6.56641,-11.67578 -10.35352,-0.70117 -1.76757,1.40234 -1.76758,2.10157 -4.79883,2.80078 h -2.42578 l -1.53125,-0.99219 -0.33985,-2.37695 0.22657,-2.1504 1.35742,-2.83007 2.26367,-3.6211 2.60352,-3.96289 1.69922,-2.60351 2.37695,-1.92383 z m -299.16406,1.5957 1.44141,0.16016 v 3.84179 l -0.48047,2.24219 -1.28125,-1.12109 -0.32032,-2.72071 z m 255.39062,0.004 c 0.4526,0 0.56641,0.45312 0.56641,0.45312 l -1.35938,1.8125 -1.81054,2.37695 -1.35742,-0.33984 -0.90625,-1.47266 1.35742,-1.35742 1.69922,-1.13281 c 0,0 1.35776,-0.33984 1.81054,-0.33984 z m -336.13476,0.38086 5.36914,0.29882 5.20703,1.58594 4.41406,1.92383 5.20703,3.05664 4.5293,2.49023 5.09375,3.16993 2.83008,1.35742 1.13086,0.90625 -1.58008,1.30859 -4.75391,0.97656 -5.55664,2.10157 h -3.78711 l -4.79882,-2.80078 -1.76758,-2.10157 -1.76758,-1.40234 -10.35352,0.70117 -6.5664,11.67578 7.07031,-9.10742 4.04102,-1.16797 2.77734,0.70117 v 2.33594 l -3.2832,0.46484 -0.50391,-0.69921 c 0,0 -2.27306,5.60503 -3.2832,6.53906 -1.01015,0.93403 -3.03125,6.76953 -3.03125,6.76953 l -1.00977,4.90625 -3.0293,1.39844 -4.59179,-0.42188 -1.4336,-0.77929 -0.60351,-3.01758 0.33594,-7.4375 -6.25,-6.96485 8.39257,2.85743 -9.64257,-6.07227 h -3.75 l -4.46485,-1.96289 10.17969,9.46289 1.78516,3.21484 h -2.32227 l -8.03516,-6.42773 -8.57031,-8.57227 -3.75,-3.39257 3.57031,1.07031 9.82227,-1.96289 -8.03711,-0.35742 -0.71289,-1.60743 2.32031,-0.71484 7.67969,0.17969 3.03516,-0.35742 8.92773,-1.07227 z m 330.02148,1.09179 0.45313,1.69727 -1.13086,1.13281 -2.37696,0.22656 -0.79296,-1.13281 1.24414,-1.81055 z m -34.00586,1.25391 2.15039,0.082 1.08204,2.23242 v 1.33985 l 1.49414,4.28515 0.33398,1.96485 -1.33008,1.60742 0.74805,0.625 1.16211,8.30273 1.16406,4.82227 v 5.53515 l -0.74609,1.60743 h -0.66602 l -0.83203,-1.96485 -0.082,-4.64258 -1.16406,-4.19531 -0.13477,2.99219 -0.66992,1.29297 -1.76172,1.39062 -2.11719,-0.88476 -2.58593,-4.16602 -2.70313,-5.55664 -1.05859,-4.79883 0.58593,-4.16601 v -0.002 l 1.85743,-3.07031 1.13281,-1.8125 2.26367,-1.81055 z m -221.51367,1.5918 2.88086,1.4414 -0.65234,2.82422 -2.01953,2.17188 -0.5,1.42773 v 13.03711 l -0.9961,-2.85742 -0.33398,12.5 -1.4961,-22.67969 -0.83007,-1.07031 -1.70313,3.04687 -4.16601,4.06641 -3.62305,2.60351 -3.84766,0.56446 -1.69922,0.11328 -1.35742,-0.33985 -0.59961,-0.54492 -0.35156,-1.29883 -1.26367,2.56836 -2.01953,-1.63476 0.16015,-2.37305 0.875,-2.30469 1.74219,-2.0957 1.64258,-1.32812 10.23242,-5.11524 z m -134.08984,0.1875 3.75,0.53515 1.42773,2.5 -0.71289,1.60742 -2.5,-2.32031 z m 505.10547,0 -1.96485,2.32226 -2.5,2.32031 -0.71289,-1.60742 1.42774,-2.5 z m -114.47657,1.15429 2.26368,0.79297 1.13281,2.15039 0.67969,1.58594 -0.22657,1.01758 -2.80468,0.67383 -0.87696,-0.0293 2.01953,1.63281 2.52539,3.03711 0.25196,3.73633 -2.01953,1.63476 -1.26368,-2.56836 -1.51367,5.60352 0.75781,5.13867 -1.76953,3.03516 -2.01953,-3.73633 -2.01953,-6.07227 -0.70117,0.19532 -1.32031,-0.28125 -1.13282,-0.45313 -1.35937,-0.50976 -1.4707,-1.24414 c 0,0 -1.18779,-1.81271 -1.30078,-2.09571 -0.11301,-0.28301 -0.0566,-0.84765 -0.0566,-0.84765 l -0.14062,-0.60157 -0.30664,-0.98437 -0.99805,-1.78711 -0.2539,-1.21289 0.5664,-0.9043 1.01953,-1.13281 1.81055,-1.58399 1.69727,-1.58593 2.26562,-1.24414 3.05469,-1.2461 z m -384.20117,0.27344 10,1.60742 2.14258,2.67969 0.71484,3.75 -4.64257,0.35742 -6.78516,-4.64453 z m 492.25,0 -1.42969,3.75 -6.78515,4.64453 -4.64258,-0.35742 0.71484,-3.75 2.14258,-2.67969 z m -78.27734,0.97266 1.01953,0.11328 0.11133,2.60351 c 0,0 -0.79144,0.90608 -1.35742,0.67969 -0.56599,-0.2264 -1.13282,-1.47266 -1.13282,-1.47266 v -1.01953 z m -434.68555,0.63476 1.60547,1.25 1.42969,2.14258 -1.07227,2.85742 -4.64258,-2.85742 1.25,-2.67773 z m 533.67578,0 1.42969,0.71485 1.25,2.67773 -4.64258,2.85742 -1.07226,-2.85742 1.42968,-2.14258 z m -576.64258,1.46485 h 3.52149 l 4.00195,1.28124 5.2832,2.08008 2.24024,0.96094 2.22266,1.61133 0.16015,0.28125 10.71485,12.5 4.64257,6.42773 -0.71484,0.89258 h -2.32031 l -5.71485,-7.5 -1.42773,0.17969 -0.89258,4.46289 -3.39453,8.21484 2.67969,-4.28515 1.96484,1.78515 0.71289,7.14258 0.17969,4.46485 -1.60742,3.75 2.5,4.82226 0.53515,-5.53711 1.25,-2.14258 1.60743,1.96485 -1.60743,10 2.32227,-3.21485 1.25,1.78516 1.96289,16.07227 -0.89258,1.25 -3.57031,-3.92774 -0.53711,1.78516 -1.04687,0.24218 -2.01368,-1.07421 -1.11914,-1.75977 -1.92187,-5.44336 -2.56055,-8.48437 -3.8418,-8.64454 -3.84375,-9.28515 -3.20117,-7.20313 -4.48242,-12.16797 -3.8418,-10.24414 -0.32031,-2.24218 z m 616.49414,0 h 3.52149 l 1.12109,0.80078 -0.31836,2.24218 -3.84179,10.24414 -4.48243,12.16797 -3.20117,7.20313 -3.84375,9.28515 -3.84179,8.64454 -2.56055,8.48437 -4.24805,15.08594 -3.08008,5.35937 -3.20312,1.92188 h -2.40039 l -2.5625,-2.24219 -1.47461,-4.71875 -0.29688,-5.75195 0.31446,-6.06055 -1.96094,-18.23828 2.32227,-11.42773 4.36328,-7.85743 4.64258,-6.42773 10.41992,-12.1543 3.08593,-2.23828 2.24024,-0.96094 5.2832,-2.08008 z m -138.61523,2.20117 1.69727,1.01953 -0.79297,2.83008 -1.35742,2.37695 -1.25391,0.3418 -0.84961,-0.32032 -3.56445,-0.73242 -0.5586,-0.76172 0.90625,-1.69726 2.60352,-1.58399 z m -260.47266,4.27539 2.82227,3.66211 3.41016,8.20703 1.76172,4.29297 -0.11719,2.14648 -0.28907,1.24219 -0.27539,0.0644 -0.78711,-0.77539 -1.5332,-1.98828 -3.44336,-3.76172 -1.91992,-2.64258 c 0,0 -0.66531,-2.09263 -1.0625,-3.31054 l -0.21094,-3.98047 0.35157,-2.14649 z m 184.79102,0 1.29297,1.00976 0.35351,2.14649 -0.23437,4.41992 -0.82422,3.15625 1.76367,-2.9043 0.93946,-0.75781 1.17578,1.76758 0.4707,2.52539 0.2207,2.28711 v 2.67578 l -0.11328,2.03906 -1.58398,2.49024 -6.19141,3.25195 -3.74219,0.51562 -0.9414,-2.02148 1.29492,-4.16602 -1.41016,1.38868 -0.35351,-1.51563 -0.11719,-2.14648 1.76172,-4.29297 3.41015,-8.20703 z m -217.50391,1.95117 1.05274,1.91016 0.15039,14.80468 0.83203,22.14258 -1.16406,19.46485 -0.9961,3.39257 -0.5,-3.03515 -0.33398,-23.39258 -0.49805,-17.5 -1.33008,6.96289 -3.07226,4.34375 -3.07227,1.37109 -0.35742,-0.98242 0.0801,-2.67383 1.63281,-9.27343 1.51563,-6.30469 0.39843,-3.70117 1.02149,-2.43555 1.01953,-2.7168 2.15039,-1.92383 z m 249.37696,1.58398 0.73632,0.28321 0.45313,1.47265 c 0,0 -0.0567,0.84782 0.0566,1.07422 0.11339,0.2264 0.11328,2.20703 0.11328,2.20703 l -0.22656,2.66016 -0.11328,1.47266 -0.11328,2.15039 -0.39649,1.30273 -0.45312,0.9043 -0.33985,-0.56641 -0.0488,-0.29101 0.11328,-11.29688 z m -152.44336,0.93555 1.96484,0.35547 2.5,1.33984 2.41016,3.30469 1.33984,3.21289 1.60547,5.625 0.98242,2.23242 -0.98242,1.69727 -4.10547,2.41016 -4.375,-0.0899 -2.94726,-3.48242 v -5.44531 z m 56.60742,0 1.60742,11.16016 v 5.44531 l -2.94726,3.48242 -4.375,0.0899 -4.10547,-2.41016 -0.98243,-1.69727 0.98243,-2.23242 1.60547,-5.625 1.33984,-3.21289 2.41016,-3.30469 2.5,-1.33984 z m -189.90625,0.30469 3.78711,1.63476 3.2832,1.63282 3.53516,1.86914 2.7793,8.17187 -2.5254,8.87305 -3.78906,-0.69922 -1.00976,1.40039 -4.54688,-3.50195 -10.35351,-13.07617 -0.25196,-3.03711 2.52539,-1.86719 z m 322.95312,0 6.56641,1.40039 2.52539,1.86719 -0.25195,3.03711 -10.35352,13.07617 -4.54687,3.50195 -1.00977,-1.40039 -3.78906,0.69922 -2.52539,-8.87305 2.7793,-8.17187 3.53515,-1.86914 3.2832,-1.63282 z m -421.17187,0.14062 1.42773,0.17969 2.5,1.60547 3.39258,-0.71289 3.75,2.67773 3.21485,4.82227 0.89257,3.75 h -1.07031 l -1.32422,-0.66211 -6.54492,-3.8418 -4.08203,-3.84179 -1.94531,-2.56446 z m 523.85352,0.17969 0.89257,6.25 -0.66601,6.48633 -0.32227,1.25976 -1.27929,2.00196 -2.48243,3.04101 -2.88086,0.96094 -4.32226,-0.24023 -4.00195,-1.04102 -3.08594,-1.88086 -0.22656,-0.16015 -0.76954,-1 0.57618,-0.31055 1.60351,-0.18945 1.26563,-2.06446 0.95703,-0.63672 2.08008,-1.76172 2.40234,-1.4414 1.2793,-0.5586 0.88086,1.35938 1.20117,0.0801 1.04101,-1.11914 0.90625,-3.13672 2.45118,-4.4707 z m -313.14063,0.53516 1.42969,8.92773 -0.17774,14.46485 v 8.39257 l -1.07226,1.42969 -1.07227,-1.42969 0.35742,-2.85742 -2.67773,0.17969 -1.07227,2.67773 h -2.14257 l -0.53516,3.03516 -2.75,2.19922 -1.93555,0.99023 -1.34179,0.20703 -0.82618,-0.62109 -0.56054,-0.64844 -1.40625,-2.80273 v -7.32422 l 1.17773,-6.1875 2.23242,-3.53516 -1.29882,-0.11133 -1.48633,-0.55078 -0.51563,-1.03125 0.10352,-2.06445 0.82422,-0.61914 1.13672,0.0508 1.03124,1.1875 1.1875,2.21875 1.36524,1.85352 3.0625,7.14648 -3.03711,-12.85742 1.96484,-5.35547 2.85743,-1.25 1.78515,1.78516 -0.53515,9.46484 1.60742,-6.42969 0.89258,-4.10742 1.42773,-2.85742 z m 98.21484,0 v 3.57031 l 1.42774,2.85742 0.89258,4.10742 1.60742,6.42969 -0.53516,-9.46484 1.78516,-1.78516 2.85742,1.25 1.96484,5.35547 -3.03711,12.85742 3.75,-8.75 1.96485,-4.10742 1.80469,-0.24023 0.66601,0.12695 0.56641,0.5664 0.50781,1.01758 0.31055,0.88086 -0.17578,1.41602 -1.29493,0.75586 -2.93945,0.2539 2.23242,3.53516 1.17774,6.1875 v 7.32422 l -0.87305,1.73828 -1.4375,1.73828 -1.58398,0.28125 -1.78321,-0.76758 -2.89258,-2.31445 -0.53515,-3.03516 h -2.14258 l -1.07227,-2.67773 -2.67773,-0.17969 0.35742,2.85742 -1.07226,1.42969 -1.07227,-1.42969 v -8.39257 l -0.17773,-14.46485 z m 203.13868,0.35742 1.60742,0.69726 0.56054,2.08204 -1.52148,3.52148 -3.66797,3.06641 -3.76367,1.88281 h -1.07031 l 0.89258,-3.75 3.21484,-4.82227 z m -516.07227,0.10156 1.19922,1.04102 0.48047,2.96289 0.56054,5.60156 -0.0801,3.76172 v 1.60156 l 1.4414,2.24219 0.64063,2 0.40039,2.00195 -0.48047,1.67969 -0.70508,-0.12891 -0.88086,-3.22265 -4.28515,15.35742 -2.14258,1.25 -0.89258,-2.32227 1.25,-8.39257 0.53516,-5.35743 -2.5,-3.03515 0.71484,-1.78516 h 1.96289 l 2.14453,-3.03711 -0.71484,-6.96289 0.65039,-4.55469 z m 129.19531,0.50195 1.01953,0.56641 0.10938,1.20703 -1.83594,5.51758 -2.01953,3.73633 -1.76953,-3.03516 0.75781,-5.13867 -0.0312,-0.11914 0.59961,-1.60156 1.92383,-0.79297 z m 38.81641,0.47852 0.9414,0.75781 0.49219,0.8125 0.68555,1.9668 1.52148,1.44141 3.28125,4.08203 3.4668,5.47265 0.31055,0.99805 -0.16602,0.35742 -0.73047,0.77539 -1.20117,0.40039 -4.96094,-0.48047 c 0,0 -3.84393,-1.11926 -4.16406,-1.35937 -0.32016,-0.24013 -2.08008,-1.20117 -2.08008,-1.20117 l -0.88086,-2.16211 -0.24023,-1.83985 v -1.12109 l 0.14453,-0.12305 0.87891,0.31446 0.70507,-1.13672 0.35157,-3.66211 0.4707,-2.52539 z m 224.99219,0.6543 0.62304,0.62109 1.07617,3.25781 0.16993,1.57813 1.51562,6.30469 1.63281,9.27734 -0.041,1.98047 -0.19922,1.08008 -0.64063,0.64062 -1.55273,-0.60547 -0.83008,-0.69336 -3.16015,-4.46484 -0.83204,-4.35938 -0.59179,-4.88281 -0.45313,-4.41406 0.73633,-3.45313 1.01953,-1.7539 z m -148.10547,1.5664 2.05273,0.89258 3.92969,3.30469 1.24414,0.96289 -1.33398,1.71484 2.35742,-0.92187 0.5,0.38672 -0.0899,1.16015 -0.80273,2.94727 -2.85742,0.80273 -2.58985,-1.42773 -1.60742,-4.10742 -1.16015,-3.48242 z m 37.85742,0 0.35742,2.23243 -1.16016,3.48242 -1.60742,4.10742 -2.58984,1.42773 -2.85742,-0.80273 -0.80274,-2.94727 -0.0898,-1.16015 0.5,-0.38672 2.35742,0.92187 -1.33398,-1.71484 1.24414,-0.96289 3.92968,-3.30469 z m -260.41992,2.84766 1.35937,0.45312 2.49024,1.92383 1.69726,2.7168 0.67969,3.39648 -1.47266,0.11328 -2.60351,-1.58593 -1.47071,-1.58399 -0.33984,-2.60351 -0.5664,-1.01953 z m 414.95703,1.04297 2.52539,1.86719 1.42773,2.42187 0.3125,2.26172 -0.80078,2.72266 -1.12109,2.08007 -2.08008,3.20118 -4.00391,1.76171 h -3.04101 l -3.36133,-1.4414 -1.76172,-2.24024 0.25586,-0.98046 8.61719,-11.1875 1.76758,0.23437 z m -431.05078,0.27344 1.52148,0.80078 3.76172,2.24023 3.04102,2.96094 1.04101,1.76172 -0.64062,1.04101 -1.91992,1.67969 -2.5625,1.60156 -2.88086,1.1211 -1.44141,0.16015 -1.28125,-2.80273 -0.31836,-2.64063 -0.48047,-2.80078 0.48047,-3.20312 0.31836,-1.67969 z m 83.20508,0.7539 h 2.56054 l 1.60157,0.56055 2.96093,4.24219 1.68164,3.04296 -0.56054,3.04102 -1.44141,3.20117 -2.24023,1.76172 -1.92188,0.24024 -2.16016,-0.16016 -1.52148,-1.36133 -1.36133,-2.40039 -0.63867,-2.64258 -0.24023,-3.04101 0.8789,-2.24024 0.7207,-2.80273 z m 274.75976,1.19531 1.4082,0.25196 2.47071,2.14648 1.25195,3.29688 -0.16211,1.45312 -1.4707,2.03711 -2.7168,0.79297 -1.8125,-0.79297 -1.69726,-2.15039 0.11328,-3.2832 0.67968,-2.37696 0.79688,-0.96679 z m -201.68945,0.1211 1.04883,0.36523 0.40039,1.28125 0.16015,3.1211 -0.8789,3.36132 -2.00196,4.32227 -1.76171,1.12109 -1.11524,-0.72656 -0.20117,-0.59765 0.41406,-1.96485 0.41602,-1.33984 -1.08008,-0.98047 v -1.69727 l -0.0117,-0.27734 1.4082,-3.71094 2.47071,-2.14648 z m -78.99414,1.48633 0.48047,0.88086 0.48047,4.88281 1.84179,6.24219 3.92188,3.52148 h 2.23828 l 2.80469,0.80078 2.16015,1.1211 2.40235,2.48046 1.91992,2.64258 1.68164,3.04102 1.12109,2.64258 c 0,0 1.35938,2.64076 1.35938,2.96093 0,0.32017 0.0801,2.40039 0.0801,2.40039 l -0.8125,1.80274 -2.94921,2.35937 -2.64063,1.1211 -3.20312,0.48047 -5.60157,1.12109 -5.92382,0.96094 -2.80079,-0.48047 -1.84179,-1.20117 -0.86719,-0.97071 -0.38477,-1.77734 1.51563,-9.33984 0.75781,-3.50196 -3.78906,2.33399 3.03125,-7.47266 1.26172,-3.50195 -5.80664,10.50781 -2.7793,0.93359 v -4.90429 l 3.53516,-5.36914 3.78906,-10.74219 2.01953,-4.66992 0.60938,-1.12696 z m -52.92383,0.67382 1.81055,0.56641 0.5664,2.03711 -0.33984,1.69727 -1.24414,-0.45118 -1.2461,-1.58593 -0.45312,-1.35743 z m 357.82031,0.22657 0.73633,0.67968 0.2832,1.30079 0.22657,1.24609 v 1.4707 l 0.45312,2.40235 -0.34766,12.22656 L 687,355.7793 l -0.5,3.03515 -0.99609,-3.39257 -1.16407,-19.46485 0.77344,-20.56836 0.2461,-1.76172 z m 55.21875,1.17968 h 0.96094 l 1.66601,2.45508 0.62305,1.44141 3.78711,10.74219 3.53711,5.36914 v 4.90429 l -2.7793,-0.93359 -5.80664,-10.50781 1.26172,3.50195 3.03125,7.47266 -2.73437,-1.68555 -2.26563,-2.58789 -3.68164,-7.52344 -0.80078,-3.36328 1.48633,-4.31055 0.11523,-0.17187 0.95899,-3.04102 z m -261.7539,1.11133 0.35156,3.15625 1.88086,4.54492 -0.82227,4.16797 -0.11914,4.54492 0.82422,4.54688 -0.53906,3.88086 -1.16406,1.82226 -3.28126,1.68165 -5.68359,1.67968 -5.04297,0.48047 h -5.52148 l -2.96289,-1.19922 -0.95703,-2.26758 0.23242,-7.5039 -0.58203,-2.5 -0.16602,-2.94727 1.41211,-1.78515 2.32813,-1.78711 0.22265,-3.20703 0.79102,-1.93555 2.00195,-1.76172 1.44141,-0.87891 2.80078,0.47852 3.8418,1.12109 2.17773,1.5918 3.71484,9.22852 -0.4707,-6.56641 1.29297,-5.93555 0.35156,-2.52539 z m 163.62109,0 1.64648,0.125 0.35352,2.52539 1.29297,5.93555 -0.47071,6.56641 3.34961,-8.32227 1.76368,-1.76367 2.60351,-1.69727 2.7168,-0.79297 1.4707,-0.22656 2.37891,2.03711 1.35742,1.35938 1.18945,2.32031 0.16797,2.44922 2.32813,1.78711 1.41211,1.78515 -0.16407,2.94727 -0.58203,2.5 0.16016,5.24414 -2.70117,2.70117 -2.94141,0.67774 -8.03711,0.79296 -9.28516,-0.98632 -1.30078,-1.07032 -0.82422,-5.93359 0.82422,-4.54688 -0.11914,-4.54492 -0.82226,-4.16797 1.88086,-4.54492 z m -323.10742,1.49805 2.14258,1.78711 h 4.10742 l 3.75,1.78516 v 1.60742 l -0.71485,1.60742 -1.78515,0.53516 -6.69532,0.1621 -5.35351,-0.2832 -2.08203,-0.56055 -2.16016,-0.63867 -0.0801,-1.92187 1.03907,-1.44141 1.84179,-0.79883 0.62305,-0.21679 z m 482.60351,0 3.02344,0.91406 1.80859,0.79883 1.60157,0.96094 1.4414,0.56054 1.91993,1.28125 0.80078,1.20118 -0.32032,1.19921 -2.48046,0.72071 -5.39063,0.14453 -2.58203,-0.28125 -7.32227,-0.17773 -1.78515,-0.53516 -0.71485,-1.60742 v -1.60742 l 3.75,-1.78516 h 4.10743 z m -253.6582,1.54687 1.41211,1.31055 2.85742,0.89258 1.78516,3.03711 v 6.07031 3.92969 l -0.38086,0.92383 -3.5293,3.40429 -4.30273,1.58399 -5.66016,0.67969 c 0,0 -4.30142,-0.22674 -5.20703,-0.45313 -0.90558,-0.22639 -4.98111,-2.49056 -5.88672,-2.94336 -0.90557,-0.45279 -1.81055,-1.58398 -1.81055,-1.58398 l -0.043,-0.60938 0.8379,-3.14648 0.44726,-6.16016 0.35742,-1.60742 1.07032,0.26758 0.80468,2.05469 0.35742,5.53515 0.71485,-7.05273 4.73242,-2.67969 0.89258,1.60742 0.98242,6.25 -0.17969,2.94727 0.7168,-4.19727 0.0898,-5.35742 1.69532,-2.41016 2.76953,-1.78515 2.67773,-0.0898 z m 24.9668,0 1.80078,0.41797 2.67773,0.0898 2.76953,1.78515 1.69532,2.41016 0.0898,5.35742 0.71484,4.19727 -0.17968,-2.94727 0.98242,-6.25 0.89258,-1.60742 4.07031,2.30469 0.37695,1.35742 -1.35742,2.26367 -1.8125,1.8125 -3.16992,4.30078 -3.11328,2.4336 -3.56446,0.96289 -5.53711,0.83398 0.004,-0.0195 -2.14258,-1.42773 -1.25,-3.03516 v -3.92969 -6.07031 l 1.78516,-3.03711 2.85742,-0.89258 z m -176.13672,1.28711 1.51172,0.2168 1.61328,1.97461 0.15625,1.25 -0.80078,1.36133 -0.96094,2.40234 -0.48047,1.67969 -0.63867,1.28125 -1.04102,-0.0801 -2.40234,-0.96094 -1.83984,-0.88086 -0.56055,-1.19921 0.0273,-0.12696 1.01367,-0.67383 1.83985,-2.24218 1.12109,-2.88086 z m -40.1543,0.33985 1.13281,0.5957 2.18164,6.85742 v 3.03516 l 2.01954,-6.76953 2.27343,4.20312 -1.40625,8.01367 -0.70703,1.41407 -2.16015,0.88086 -2.5625,-0.0801 -2.72071,-0.32031 -3.20117,-1.20118 -1.8418,-0.71875 -1.36132,-1.28125 -0.85157,-1.81445 0.51172,-9.91601 3.03711,9.82031 1.60547,-3.21289 0.30664,-6.80469 0.33984,-1.50195 0.50391,-0.94727 0.56836,-0.12695 0.50586,0.69531 0.25195,1.95703 -0.12695,3.66211 0.88476,-3.78906 -0.18945,-1.07227 0.77344,-1.43359 z m 407.43945,0.30664 0.70704,0.17578 0.66015,0.4082 0.59375,0.41602 0.67969,0.59961 0.60156,1.24219 0.61328,3.73437 0.11914,2.62305 0.0449,0.0898 -0.42383,3.81641 -2.7168,1.69922 -4.52734,-1.13282 -2.03907,-1.13281 -1.5371,-2.30664 -0.45899,-2.61719 2.27344,-4.20312 2.01953,6.76953 v -3.03516 l 1.78516,-5.61523 0.0449,-0.0918 0.80078,-1.35937 z m -99.07617,0.20117 0.35547,0.17187 0.0801,0.25391 0.41406,1.96485 -0.6543,1.95507 -1.0996,-0.15625 -1.01954,-1.35937 v -1.58399 l 0.67969,-1.01953 z m 152.41797,0.19336 h 2.7207 l 1.60157,0.7207 1.36133,2.24024 -0.8086,2.70898 -7.27539,8.33789 -8.32617,5.92383 -11.36524,6.24219 -3.04101,1.12109 -1.44141,-1.12109 -0.96289,-1.99805 -0.93945,-5.37109 -0.71484,-3.92969 1.42773,-1.42773 3.03711,-1.07227 2.67773,3.21484 -1.07031,-4.10742 1.25,-1.78515 v -2.14258 l -0.71484,-1.96485 1.42773,-0.53515 2.32227,0.71484 9.19922,-1.03906 1.31054,0.3125 0.24024,0.80078 0.88086,-1.12109 1.27929,-0.40039 h 1.92188 l 0.7207,0.56054 0.64063,3.1211 -0.16016,-4.5625 1.19922,-2.56055 z m -510.55664,1.40625 h 1.76172 l 0.56055,0.96094 0.56054,1.43945 -1.4414,0.88086 -1.8418,0.80078 h -1.75977 l -1.4414,-0.88086 -0.0801,-1.60156 0.80078,-0.87891 z m 414.82422,0.27539 0.80078,0.63867 1.76172,1.44141 1.75976,0.80078 3.20313,0.80078 3.04102,-0.64062 1.42968,-0.84571 1.61133,-0.11523 1.28125,1.12109 3.04102,6.24219 2.40234,4.96289 0.48047,3.52344 -0.16016,2.56054 -1.04687,1.04688 -1.4668,1.15234 -5.77148,1.81055 -4.18946,-0.22656 -5.77343,-1.81055 -3.50782,-2.37695 -2.60351,-3.73633 -3.50977,-5.77344 -0.73828,-2.95117 0.73438,-4.18945 4.54492,-1.63477 0.45898,-0.5957 1.41797,-0.88477 z m 51.00781,0.51563 0.53516,10.35742 -0.70899,4.83789 -1.11132,2.22461 -0.67969,-0.33985 -0.67969,-2.15039 -0.33984,-3.2832 0.10937,-2.34961 z m -370.88672,1.35351 4.35743,1.56641 1.26171,7.19531 -0.31054,5.69727 -2.03125,4.5332 -0.92969,0.26953 -1.28125,-1.36133 -1.19922,-2.32031 -1.52148,-3.52149 -1.68164,-5.76367 0.80078,-4.16211 1.20117,-1.84179 z m 423.29493,0.85156 1.76171,0.32032 0.90235,2.93359 0.8164,5.47852 -0.59765,1.99414 -1.76172,0.32031 -1.91992,-1.28125 -1.44141,-1.60156 -0.48047,-4.64258 z m -393.67969,1.00977 1.49804,2.67773 0.33204,9.28516 0.14843,14.07422 -0.9082,2.65625 -1.35938,0.67969 c 0,0 -2.07007,0.56802 -3.98046,1.07226 l -1.54297,0.084 -3.78907,-1.86914 0.25391,-2.09961 1.51563,-3.03711 4.29296,-5.83789 1.51563,-2.33594 -3.2832,2.80273 -1.51563,-1.63281 -0.2539,-2.80273 2.01953,-3.26954 3.2832,-2.80273 1.26367,1.63672 -1.00781,-4.20508 -0.44727,-0.16992 -0.32422,-0.71094 -1.07226,-0.89258 0.0898,-1.33984 1.69141,-1.3457 z m 257.78515,0 2.02735,0.79101 0.59375,0.40625 1.16211,0.91993 0.40039,0.56054 0.11914,0.88086 -1.41211,0.9961 -1.37109,0.52148 -1.00977,4.20508 1.26367,-1.63672 3.2832,2.80273 2.01954,3.26954 -0.25391,2.80273 -1.51563,1.63281 -3.2832,-2.80273 1.51563,2.33594 4.29297,5.83789 1.51562,3.03711 0.25391,2.09961 -3.78907,1.86914 -1.92578,-0.10352 -2.45312,-0.65625 -2.4336,-1.47266 -0.67968,-1.24414 -0.29688,-1.15234 0.14649,-13.9375 0.33203,-9.28516 z m -376.66211,0.23633 5.84375,0.48047 h 5.04297 l 0.87891,0.48046 0.77539,1.63086 v 1.45704 l 1.25,1.78515 -1.07031,4.10742 2.67773,-3.21484 3.03711,1.07227 1.42774,1.42773 -0.71485,3.92969 -1.25,7.14258 -1.69726,7.69531 c -1.62092,1.29209 -4.46846,3.5468 -4.8125,3.63281 -0.45279,0.11319 -4.52735,0.67969 -4.52735,0.67969 l -5.54687,-1.01953 -5.41211,-2.3086 -3.53906,-2.25195 -2.32227,-3.21289 -0.71289,-5.71484 0.53516,-6.25 1.96484,-6.25 2.10547,-3.3711 2.06445,-1.44726 z m -12.63671,0.47656 0.89257,0.53711 -0.17773,2.32031 0.71289,4.82227 -0.17773,3.75 -1.42774,2.5 -1.25,-1.60742 -0.17969,-3.92774 0.17969,-5.35742 z m -69.56641,1.36328 2.40234,1.92188 3.36133,2.40039 2.88086,1.92187 1.76172,-0.16015 1.92187,0.96093 4.64258,-0.32031 2.72071,0.64062 2.88086,-1.76171 4.00195,-1.1211 2.88281,0.16016 1.91992,1.28125 2.88282,3.68164 0.62695,0.92187 1.93359,6.44336 1.76172,4.16211 1.59961,5.28321 -0.63867,2.40039 0.95898,0.64062 1.1211,2.40039 -0.48438,3.03125 -0.5,0.71289 0.89258,1.25 -1.25,6.78516 -6.42969,11.96484 4.82227,-4.64257 4.46484,-3.03516 -7.5,12.85742 -15.71484,22.85547 -10,7.14453 6.25,-6.07226 8.75,-13.75 -10.71485,10.35742 3.75,-8.92969 -3.92773,5.53711 -9.46484,9.82031 -8.57227,5.89258 -1.25,3.03711 0.35742,3.57031 -3.57031,4.10742 -5.35742,3.39258 -3.92969,-0.71289 v -4.28711 l -2.14258,3.92969 -8.03515,6.25 -0.70313,0.62695 -2.74023,1.39258 -1.11914,-1.44141 -0.16016,-1.59961 2.56055,-6.40429 4.64257,-13.12696 3.36133,-7.68359 2.88281,-11.36719 4.32227,-15.04882 2.24023,-7.52344 1.60157,-6.72266 1.12109,-4.32226 0.1582,-3.20313 2.24219,-5.44141 1.28125,-3.04296 0.32031,-3.20118 0.16016,-1.28125 0.95899,-3.68164 2.08203,-9.92578 1.12109,-6.5625 z m 660.36133,0 1.59961,3.36328 1.12109,6.5625 2.08203,9.92578 0.95899,3.68164 0.16015,1.28125 0.32031,3.20118 1.28126,3.04296 2.24218,5.44141 0.16016,3.20313 1.12109,4.32226 1.60157,6.72266 2.24023,7.52344 4.32227,15.04882 2.88281,11.36719 3.36133,7.68359 4.64257,13.12696 2.56055,6.40429 -0.16211,1.59961 -1.11914,1.44141 -3.69141,-1.875 -0.1621,-0.14453 -8.03516,-6.25 -2.14258,-3.92969 v 4.28711 l -3.92969,0.71289 -5.35742,-3.39258 -3.57031,-4.10742 0.35937,-3.57031 -1.25195,-3.03711 -8.57226,-5.89258 -9.4629,-9.82031 -3.92773,-5.53711 3.75,8.92969 -10.71484,-10.35742 8.74804,13.75 6.25196,6.07226 -10,-7.14453 -15.71485,-22.85547 -1.40625,-2.41016 1.01758,5.16016 0.37891,3.91406 -3.53516,5.05078 -4.16797,1.38868 -3.02929,-0.50391 -1.51563,-1.76953 -0.37891,-3.4082 -0.88086,4.18164 0.30274,3.03906 -2.67969,0.89258 -1.11523,-0.0469 -0.73438,-1.66992 4.80274,-14.56641 4.80273,-17.60937 4.00391,-16.00781 1.59961,-5.28321 1.76171,-4.16211 1.9336,-6.44336 0.62695,-0.92187 2.88281,-3.68164 1.91993,-1.28125 2.88281,-0.16016 4.00195,1.1211 2.88086,1.76171 2.7207,-0.64062 4.64258,0.32031 1.92188,-0.96093 1.76172,0.16015 2.88086,-1.92187 3.36132,-2.40039 z m -302.79102,1.60156 1.13281,0.67774 1.35743,2.49023 1.8125,4.75586 1.58398,4.75391 0.51172,1.91601 -0.0879,4.75782 -2.46094,1.47656 -5.66015,-0.67969 -2.88672,-3.33984 -0.96094,-7.30078 1.41406,-4.75391 2.32031,-3.79297 z m 122.00586,0.23243 h 0.98438 l 0.82226,0.85351 0.875,2.55664 0.62305,3.26172 1.13281,3.73633 1.81055,3.73437 -0.11328,3.16993 -1.01758,2.26367 -2.03906,-0.20313 -2.32032,-2.32812 -1.76757,-10.27539 z m 110.94141,1.08398 0.88086,1.19922 -0.16016,1.76172 -0.80078,0.24023 -1.35938,-0.56055 0.32032,-1.92187 z m -52.28125,3.4375 0.22656,1.35742 -0.79297,1.13281 -1.13281,0.11329 -0.9043,-1.13282 -0.11328,-0.5664 0.9043,-0.67774 z m 55.08398,1.125 3.52149,2.56055 1.08007,2.79101 0.41211,8.95313 -0.53125,2.66406 -0.64062,2.80078 -2.32227,3.12305 -2.40039,2.08008 c 0,0 -4.16229,3.04101 -4.48242,3.04101 -0.32016,0 -4.24236,2.64258 -4.64258,2.64258 -0.40021,0 -4.48262,1.12109 -4.96289,1.12109 -0.48026,0 -4.96307,-0.32036 -5.36328,-0.48047 -0.40021,-0.16009 -3.28125,-1.28125 -3.28125,-1.28125 l -3.51172,-1.45507 -2.41797,-2.75977 -1.25,-2.67969 -0.51757,-2.34179 0.2539,-2.5293 1.43945,-3.84375 4.64258,-3.8418 12.64649,-7.20312 6.40429,-3.20117 z m -60.29101,1.02539 2.82812,1.01953 3.16992,2.03711 2.15039,1.58399 1.3125,1.75 0.57422,2.13281 -1.78515,15.17969 -2.32032,-19.64258 v 31.16601 l -0.60937,1.10938 -0.56641,0.33984 -1.92383,-1.35742 -2.3789,-2.03711 -1.28125,-4.59961 1.17578,-4.53125 -0.25195,-6.77148 -2.7793,-8.875 v 5.37109 l -2.52539,4.9043 -1.76758,-10.50782 1.03711,-5.75 0.73242,-0.82421 1.58594,-1.47071 z m -257.57618,1.02539 3.21485,1.42774 0.71484,4.46484 1.78516,9.73242 -0.0918,6.69531 -1.42578,1.51758 -0.98438,-0.89258 -0.44531,-1.96484 -0.80469,-2.41016 -0.71484,-1.42773 0.53516,4.73242 0.17968,5.98047 1.16016,4.55469 1.875,1.69531 -1.60742,0.0898 -0.17774,3.21485 0.26758,2.14258 -1.875,1.07031 -2.67773,-0.625 -0.98242,-2.58789 2.67773,-11.78711 -2.58984,5.18359 -2.85156,3.14649 -2.94336,1.4707 -1.58399,-0.11328 -1.13281,-1.01758 0.0547,-2.47266 2.99804,-9.13476 v -2.9043 l 0.35352,-2.77734 1.17383,-0.25391 2.93945,4.79883 -1.99805,-7.44922 -1.64648,-6.82031 0.70508,-1.51367 1.76562,-1.64258 -0.50586,-0.0723 -0.80468,-0.42578 -0.66993,-0.51562 -0.36133,-0.41407 -0.10351,-0.46289 0.36133,-0.36133 0.76953,-0.30078 z m 109.29102,0 5.09961,1.4707 1.00391,0.42969 0.39648,0.33985 -0.11328,0.8496 -1.21289,0.84961 -1.29102,0.1836 1.76563,1.64258 0.70508,1.51367 -1.64649,6.82031 -1.99805,7.44922 2.93946,-4.79883 1.17383,0.25391 0.35351,2.77734 v 2.9043 l 3.64453,11.11133 7.34571,9.30078 0.92773,1.68554 1.26367,2.65039 -0.2539,1.00977 -1.76758,-1.00977 -2.52539,-3.66211 -2.39844,-4.67187 0.88476,4.04102 2.77735,4.29296 3.66211,6.06055 2.14648,3.1582 -0.12695,1.51368 1.64258,2.02148 -4.29492,-2.14648 -3.0293,-3.03125 -1.13672,-2.52539 -5.68164,-7.07032 1.89453,4.79688 -1.13672,1.39062 -5.35547,1.19922 -0.91406,-0.0879 -0.0547,-0.29687 0.11328,-0.53907 -1.71289,1.27344 h -0.49414 l -0.10156,-0.66406 0.32813,-0.74219 2.26367,-3.79883 -1.25,1.33985 -1.78516,1.16015 -3.03515,-0.0898 -1.25,-2.05273 1.875,-2.85743 3.12304,-2.5 0.98438,0.71485 1.60547,0.71289 1.87695,-2.5 -1.33984,-4.64258 0.26757,2.5 -0.44726,1.78711 -1.42774,-0.0898 -0.625,-1.60743 0.26758,-2.85742 -1.07031,-1.69531 0.0898,-2.5 -3.57031,-7.14453 2.67773,11.78711 -0.98242,2.58789 -2.67773,0.625 -1.875,-1.07031 0.26758,-2.14258 -0.17774,-3.21485 -1.60742,-0.0898 1.875,-1.69531 1.16016,-4.55469 0.17773,-5.98047 0.53516,-4.73242 -0.71485,1.42773 -0.80273,2.41016 -0.44727,1.96484 -0.98242,0.89258 -1.42773,-1.51758 -0.0899,-6.69531 1.78516,-9.73242 0.71484,-4.46484 z m -265.20117,0.42969 2.08203,0.24023 1.11914,1.68164 0.24023,2.08008 -0.64062,2.32227 -0.63867,1.51953 -0.48047,-0.24024 -0.23047,-0.88281 v -4.11523 l -2.32031,19.64258 -1.78516,-15.17969 1.25,-4.64258 -0.0605,-0.4082 0.66407,-1.13672 z m 178.48633,0.24219 2.26367,0.67968 3.84765,2.7168 1.35938,2.94336 -1.81055,3.84961 -3.16992,3.62109 -2.94336,1.8125 -0.84961,-0.84961 -0.375,-2.58984 -0.17578,-9.66602 z m -168.24024,0.63867 2.24024,0.16015 0.80078,1.36133 0.41797,0.78516 0.65429,3.6289 -1.76757,10.50782 -2.5254,-4.9043 v -5.37109 l -2.77929,8.875 -0.25196,6.77148 1.51563,5.83789 -1.51563,4.20313 3.53516,-4.4375 h 2.02149 l -2.5254,5.37109 1.06055,6.05859 -0.32031,1.09375 -1.28125,0.0801 -2.80274,-1.36133 -2.96093,-1.91992 -1.91992,-1.52148 -0.39063,-1.59766 v -19.94531 l 1.66992,-7.19336 1.36133,-4.08203 1.44141,-1.75977 1.91992,-0.56054 z m 213.51953,0.041 3.79102,0.17188 2.77344,2.77148 2.03711,6.79102 2.03906,3.84961 0.67773,11.32031 0.90625,-9.05664 -0.22656,-1.81055 3.16992,-1.35937 2.49024,1.35937 2.02539,3.42774 -0.20899,1.45117 -0.71484,1.16016 -2.14258,-3.125 v 1.42773 l 0.0898,5.625 -0.44726,2.67969 -3.30274,3.75 -2.94726,2.23242 -2.23047,-0.44727 -4.375,-1.78515 -4.11523,-2.44336 0.008,-0.0566 -2.67969,-2.14258 0.53516,-3.75 1.96484,-10.35742 -2.85742,5.35742 h -1.60742 l -0.35547,-3.39258 1.34375,-8.48047 1.64258,-3.35742 z m -23.32031,1.81055 0.94336,1.29687 1.66992,10.54102 -0.35547,3.39258 h -1.60742 l -2.85742,-5.35742 1.96484,10.35742 0.53516,3.75 -2.67969,2.14258 0.008,0.0566 -4.11523,2.44336 -4.375,1.78515 -2.23047,0.44727 -2.94726,-2.23242 -3.30274,-3.75 -0.44726,-2.67969 0.0547,-3.38477 1.4043,-3.18554 3.16992,-4.30274 3.62305,-4.98047 6.33789,-4.98047 z m 168.43945,2.26563 1.58594,1.24414 0.22656,1.24609 -1.24609,0.67773 -1.58398,-0.11328 z m -55.58007,0.67773 2.36914,2.36914 0.45898,4.02344 -0.082,4.375 -0.75,3.39453 h -1.16406 l 0.16601,1.875 0.35157,0.92383 -1.00977,1.49023 -2.83008,0.90625 -3.96094,0.33985 -2.26562,-0.90626 -2.60352,-2.71679 -2.26367,-4.52735 0.40234,-1.55468 3.10743,-4.10547 5.32031,-4.52735 z m -364.53125,0.32227 0.71484,2.14257 -0.89258,3.92969 1.25,3.92774 -3.21484,10.35742 4.82031,-7.5 -0.71289,-2.32227 2.5,-0.35742 1.68555,0.84375 0.10742,0.0898 1.8125,1.69727 0.90429,1.69922 0.11329,11.43359 0.33984,-3.73633 0.67969,-7.01757 1.13281,-1.13282 1.69727,-0.45312 5.77343,1.69922 3.96094,2.26367 1.01953,1.69726 0.98828,7.3418 -0.39453,3.75391 v 8.03515 l 2.14063,-13.3789 0.006,-0.0176 2.14062,-2.49609 2.14258,4.10742 -2.67969,10 -0.11328,2.16406 -0.10742,0.25976 -0.7207,1.04102 -1.68165,0.56055 -2.64062,0.48047 -4.00195,-1.04102 -3.52149,-1.76172 -2.88281,-1.2793 -2.48047,-2.00195 -6.96484,-3.04101 -6.88282,-4.48243 -4.01171,-3.43945 -0.20899,-0.26562 -0.2832,-0.1543 -1.09961,-0.94336 v -1.64258 l 1.53125,-4.45312 1.25,-8.92969 4.64258,-6.42773 z m 344.38281,0.4707 2.60351,0.33984 2.26368,1.69727 0.22656,4.07617 -0.79297,3.2832 -2.21875,5.69141 -0.76758,1.28711 -1.1914,0.9414 -0.80469,-0.39257 -1.17578,-4.79883 -0.11719,-8.08203 1.01758,-2.76563 z m -165.80664,0.17578 c 0.32012,0.08 1.27929,1.11914 1.27929,1.11914 l 0.0684,0.0898 0.97657,2.65821 -0.0274,1.98437 -0.53711,0.8711 -1.67968,-0.96094 -2.5625,-1.75977 -0.64063,-2.00195 c 0,0 1.04116,-1.67969 1.36133,-1.67969 0.32012,0 1.44155,-0.40033 1.76172,-0.32031 z m 176.44726,0.50391 0.56641,1.35742 -1.58594,1.8125 -1.4707,1.35742 -1.58594,-0.33984 -0.5664,-1.69727 1.01953,-1.92383 1.58398,-0.33984 z m -316.98828,0.45703 1.07227,5 1.07031,5.53515 -1.42773,8.57227 -0.17774,11.42773 -0.71484,6.96485 1.42773,8.03515 -3.03515,-3.75 -0.89258,-4.82031 0.17773,-8.57226 -2.5,-9.28516 0.89258,-3.57227 1.25,-5 0.71484,-5.89257 0.35743,-2.32227 z m 447.25,0 1.78516,2.32031 0.35742,2.32227 0.71484,5.89257 1.25,5 0.89258,3.57227 -2.5,9.28516 0.17774,8.57226 -0.89258,4.82031 -3.03516,3.75 1.42774,-8.03515 -0.71485,-6.96485 -0.17773,-11.42773 -1.42774,-8.57227 1.07032,-5.53515 z m -325.67969,0.39843 4.16211,0.80079 5.84375,0.64062 5.04297,1.60156 c 0,0 4.24234,2.24034 4.5625,2.48047 0.32013,0.24012 1.03907,1.92188 1.03907,1.92188 l 0.55664,1.20117 -0.0274,1.94336 -1.17578,4.79883 -1.29492,0.63086 -1.87891,-3.15625 0.70508,8.83789 -1.4707,3.78906 -2.43164,2.21289 -3.94727,1.11328 -7.8457,0.48047 -2.72071,-0.7207 -1.04101,-1.36133 -0.7832,-3.06641 0.7207,-6.33398 -0.58203,-2.14258 0.74804,-1.96289 0.16797,-1.875 h -1.16406 l -0.75,-3.39453 -0.084,-4.375 0.16015,-1.41016 1.00586,-2.17383 z m 282.80664,0.61524 2.49024,1.13281 1.13281,1.69727 0.0508,0.85547 -0.48047,2.21875 -1.76757,1.86718 1.51562,1.16797 2.27344,0.9336 1.13672,1.98437 1.38672,4.78711 -0.88282,4.32031 -2.27148,4.90235 -2.52539,1.63476 0.51562,2.0957 -0.084,3.34376 -1.35742,3.16992 -2.60352,1.01758 c 0,0 -2.0394,-0.11167 -2.49219,-0.56446 -0.45278,-0.45282 -5.54492,-4.86914 -5.54492,-4.86914 l -9.05664,-15.62109 -3.00781,-6.47071 -0.59375,-2.74609 -0.24805,-2.78125 3.16992,-2.60352 2.94336,0.22657 5.20704,1.92383 2.37695,3.05664 0.90625,7.01757 0.33984,5.4336 0.56641,-6.56445 -0.67969,-3.9629 0.9043,-4.7539 2.3789,-2.03711 z m -9.62109,1.47265 1.92383,1.01758 -0.67969,1.01953 -1.24414,-0.79296 z m -328.65625,3.11524 0.50977,2.40234 -1.17774,5.45118 -1.51562,2.10156 3.41406,1.40039 1.63867,5.48828 -1.26367,10.39062 -1.64063,0.70118 -1.26367,-0.58399 -0.5039,-3.26953 -0.43164,2.38477 -0.70703,-1.80078 -0.25196,-3.50391 -0.4668,10.14648 -1.95898,1.11914 -3.50976,-0.22656 -3.50977,-0.79101 c 0,0 -2.37534,-0.67986 -2.82813,-0.90625 -0.45282,-0.2264 -3.96322,-2.03728 -4.41601,-2.26368 -0.45279,-0.22639 -3.39649,-2.37695 -3.39649,-2.37695 l -0.90429,-1.92383 -0.36914,-1.38476 1.66015,-3.66407 3.36328,-4.80273 8.96485,-6.72266 8.48437,-7.04492 z m -10.72461,1.12109 c 0.32013,0 1.59961,0.0801 1.59961,0.0801 l 0.24024,0.96094 -0.48047,1.2793 -1.59961,1.84179 -2.04492,1.70313 -2.67774,1.33789 -7.8457,4.48242 -5.60156,2.24219 -1.4668,-1.17383 -0.3711,-1.81836 1.38672,-4.78711 1.04883,-1.83008 0.29492,-0.24023 2.06641,-0.84766 0.26367,-0.20312 1.74024,-0.4668 7.52343,-1.59961 c 0,0 5.60367,-0.96094 5.92383,-0.96094 z m 56.72852,2.38477 1.16601,1.33789 1.66211,3.30469 1.41211,3.83789 -0.25,2.32226 1.82813,-2.85742 0.23242,12.57031 -0.0254,0.23243 0.0293,-0.0723 0.0156,0.8418 0.14062,-1.23242 0.45508,-1.13868 0.47852,-0.16015 0.56055,1.04101 0.48046,2.40039 v 2.64258 l 0.64063,-4.32226 0.7207,-0.16016 0.48047,0.40039 2.16016,0.24023 4.08203,-0.0801 3.76367,-0.48047 1.59961,-0.56055 h 1.60156 l 0.15039,0.13086 0.14844,0.26758 1.11719,1.19922 0.82226,0.50586 -0.29296,-2.14844 1.99804,-0.63086 -1.23437,9.97656 3.11523,-7.95508 1.33984,-4.65429 -0.0684,-2.76563 1.03711,-0.79297 1.38281,0.11914 0.47656,0.90039 -0.23242,0.62696 -2.46875,7.44922 -4.30274,13.53515 -1.66406,2.22071 -2.26367,0.22656 -3.05664,-0.33985 -3.96094,-1.35742 -4.41601,-1.69922 -3.84766,-2.60351 -3.73633,-2.37696 -0.98437,-2.71093 0.45312,-8.75 -2.41211,-4.82031 1.24805,4.375 -0.91602,1.51757 -1.16406,0.35743 -1.16211,-0.53516 -0.91601,-2.67969 0.5,-2.58984 0.66406,-2.5 -0.66406,-1.875 0.0801,-6.69531 0.58399,-2.23243 z m 223.04101,0 1.41407,0.80273 0.58203,2.23243 0.082,6.69531 -0.66406,1.875 0.66406,2.5 0.5,2.58984 -0.91602,2.67969 -1.16406,0.53516 -1.16211,-0.35743 -0.91602,-1.51757 1.24805,-4.375 -2.41211,4.82031 0.082,1.59179 -1.00586,2.39844 -0.67773,0.11328 -1.35938,-1.58593 -0.27734,-4.27149 0.16406,-8.78125 1.82618,2.85742 -0.24805,-2.32226 1.41211,-3.83789 1.66406,-3.30469 z m 16.53907,0.67969 1.41406,0.67968 1.61523,0.9961 1.08594,1.29101 2.02344,1.86914 -0.25391,2.80078 2.27149,0.70118 2.52539,1.16797 v 3.73437 l 1.67578,0.25977 0.71679,1.27148 0.33985,3.16992 -1.69727,3.05664 -3.16992,3.39649 -3.2832,4.07422 -2.15039,2.37695 -3.73633,1.69922 -1.35742,0.11133 -1.33399,-1.66602 0.31836,-6.84961 -0.33203,-3.125 0.91406,-1.33984 0.58203,0.17969 1.7461,5 -0.66602,-7.23243 -0.49804,-11.42773 0.0488,-4.68555 0.46485,-1.45312 z m 140.4082,0.69726 0.9082,2.24414 0.31836,2.27149 1.96485,5.71484 1.21289,2.78125 0.39648,1.15625 2.08203,0.48047 2.88086,1.91992 1.76172,2.24219 0.76172,2.95898 -4.47852,16.93555 -4.16406,7.68555 -2.24414,0.4707 -0.70898,-0.20312 -10,-5.71485 -0.35743,-3.92773 -8.75,-3.57227 0.89258,1.60742 -2.14258,0.35743 -0.17773,-2.14258 2.14258,-5.35742 0.54297,-1.63086 0.002,-0.002 c 0.42789,-0.66348 1.14648,-1.38086 1.14648,-1.38086 l 0.40039,-2.5625 0.40039,-5.44336 1.60157,-4.24218 4.40234,-3.76172 3.76172,-3.28125 2.96094,-2.88281 1.04101,-1.75977 z m -397.3125,0.0391 h 1.24609 l 0.75196,2.46094 0.0312,2.99805 -0.5,11.42773 -0.66407,7.23243 1.7461,-5 0.58203,-0.17969 0.91406,1.33984 -0.33203,3.125 0.33203,7.14258 -0.41601,2.85742 -0.58204,2.94727 -0.49804,1.42773 1.82812,-2.05273 0.83203,-0.35742 1.4961,1.42773 0.33398,2.23242 0.0937,1.24024 -0.74219,1.61328 -0.79297,0.67968 -4.41406,0.45313 c 0,0 -2.26409,-4.4e-4 -2.83008,-0.33984 -0.56598,-0.33959 -3.62304,-1.47266 -3.62304,-1.47266 l -3.05664,-2.03711 c 0,0 -2.9437,-1.47115 -3.39649,-1.81055 -0.45282,-0.33959 -1.92383,-1.58593 -1.92383,-1.58593 l -1.92382,-2.37696 -0.95899,-3.21484 -0.2539,-3.89649 2.52539,-4.43554 1.26172,-8.87305 3.03124,-0.46875 v -3.73437 l 2.5254,-1.16797 2.27148,-0.70118 -0.25391,-2.80078 2.02344,-1.86914 0.0684,-0.082 2.13477,-1.13086 z m 216.88867,1.24415 1.81055,1.58593 2.15039,3.39453 2.60351,1.8125 2.15039,0.67774 3.62305,-0.67774 2.60352,-0.45312 1.35547,2.78711 0.46289,4.06055 -0.23243,6.05664 -1.01953,5.32031 -2.55664,6.58594 -0.87109,1.7832 c 0,0 -2.39924,2.77802 -2.9043,2.9043 -0.50509,0.12623 -1.76758,0.50586 -1.76758,0.50585 l -1.89257,-1.00976 -0.63282,-1.00977 -0.2539,-1.76953 -0.63086,1.64258 -1.00977,-0.12695 -1.64258,-1.00977 -0.25195,-1.38867 0.88477,-0.63086 2.14648,0.50391 -5.30469,-4.54492 -1.75976,-4.02344 -0.008,-0.0508 0.125,-2.24024 1.06054,-1.2832 0.58008,-0.35742 1.11719,-1.19922 0.70508,-1.26367 -2.70508,-2.46094 -1.46875,-3.78906 0.34179,-4.29493 0.36133,-1.05664 2.15039,-4.30078 0.0625,-0.11914 z m 71.20117,5.20703 h 1.58399 l 1.13281,1.58593 4.1875,7.13086 4.07617,7.01758 1.69727,1.69922 2.26367,2.7168 1.58594,2.60351 1.24414,3.96094 0.67968,3.84961 0.56641,2.15039 -1.01758,1.25195 -4.64258,2.3711 -4.86718,0.56445 -1.81055,-0.45117 -1.79102,-1.54883 -2.31836,-5.26367 1.00977,-8.875 -0.50586,-10.97461 -0.25195,3.50391 -0.70703,1.80078 -0.43164,-2.38477 -0.50391,3.26953 -1.26367,0.58399 -1.64063,-0.70118 -1.26367,-10.39062 1.29688,-4.3418 z m -201.44531,2.66797 -1.07227,8.30273 0.53711,8.39258 -0.44726,10.26953 -0.26758,5.625 0.53516,3.66016 -0.80274,2.23242 -1.42969,0.80273 -1.16015,-1.25 1.07226,-2.05273 0.0879,-3.48242 0.625,-6.25 -2.05273,3.57031 -0.53516,-0.80274 -4.01953,4.01758 1.60742,1.69727 -1.69531,0.26758 v 3.13085 l -0.56836,2.17774 -1.20117,1.52148 -1.8418,0.40039 -1.03906,-0.96093 -0.40039,-1.76172 0.64063,-5.92188 0.48046,-4.96289 1.00977,-2.1914 1.13281,-0.98633 1.42969,0.80469 2.85742,1.25 3.66016,-5.625 0.89258,-3.48243 -0.98243,-9.55273 z m 280.49023,0.92773 2.88282,0.80078 4.72265,1.35938 3.52149,1.76171 2,2.32032 0.32031,2.72265 -0.0801,3.1211 -1.57226,2.5625 -2.17578,1.5664 -0.53516,2.85743 -0.17969,2.32226 -3.75,3.39258 16.78711,10.17773 1.78516,1.42969 -1.07227,1.07031 -18.03515,-8.21484 -5.17774,-2.14258 0.35547,1.60742 -1.42773,1.25 -1.78516,-1.25 -1.78711,-3.03515 0.71484,-3.03516 8.03516,-3.57226 -3.57031,0.53515 -2.32227,-0.71289 -2.14258,-1.07226 -0.17773,-3.39258 -2.67969,-10 2.14258,-4.10742 2.14453,2.5 2.14258,13.39257 v -8.03515 l -0.56445,-5.36133 0.12109,-1.69727 z m -309.81445,0.0117 1.65234,1.98633 -1.26171,1.91601 -10.21485,21.22852 11.5625,-14.64258 2.74805,-1.75586 1.4707,0.33789 1.2461,1.47266 1.01757,2.83008 0.22657,2.37695 -0.9043,3.62305 -2.26367,5.09374 -5.20899,4.07422 -4.41406,0.67969 -4.64062,-0.33984 -3.05664,-1.47071 -0.90625,-1.58593 0.22656,-1.19532 10.30469,-21.46875 0.59179,-2.64062 z m 323.3418,1.26953 1.04101,0.0801 0.24024,1.67968 -0.48047,1.36133 h -0.96094 l -1.04101,-1.04101 0.16015,-1.36133 z m -524.40235,1.88476 h 0.5586 l 0.56055,0.32032 -0.0605,1.06445 -1.02539,3.98633 -1.96485,3.75 -1.60742,0.17773 -0.35742,-1.25 3.07813,-7.0664 z m 472.69532,0.0313 2.94336,1.24414 2.60351,1.92578 2.49024,2.49023 0.79687,1.37305 -0.55664,3.89844 -2.39062,7.17968 -2.15235,4.86719 -0.67969,-0.26172 -4.31054,-11.78125 1.51367,-8.63867 -0.94141,-2.00391 z m -214.35938,0.42773 2.14258,0.89453 0.98242,2.67774 -0.26758,2.85742 -1.69531,1.07031 h -1.875 l -2.76953,-1.875 -1.25,-1.60547 -0.80273,-0.71484 0.71484,-0.53516 2.14258,-1.96484 z m 28.75195,0 2.67774,0.80469 2.14258,1.96484 0.71484,0.53516 -0.80273,0.71484 -1.25,1.60547 -2.76953,1.875 h -1.875 l -1.69532,-1.07031 -0.26758,-2.85742 0.98243,-2.67774 z m -282.68554,1.54297 4.88086,2.80078 3.04297,1.76172 5.52343,2.7207 3.42969,3.75391 0.53906,1.61719 2.14258,5.35742 -0.17578,2.14258 -2.14258,-0.35743 0.89258,-1.60742 -8.75,3.57227 -0.35937,3.92773 -10,5.71485 -5,1.42773 -4.28516,0.17969 -2.67969,-0.89258 0.71485,-7.14258 4.64257,-8.57226 3.39258,-5.17774 2.67969,-5.35742 -0.17969,-4.28711 v -0.25977 l 0.44336,-1.04296 z m 209.63476,0.74609 0.48633,1.82617 -0.38867,0.61719 0.26758,2.85742 -0.625,1.60743 -1.42774,0.0898 -0.44726,-1.78711 0.26758,-2.5 -0.95704,3.31445 -0.006,-0.0273 -0.33985,-0.79102 v -1.69922 l 0.11328,-1.58398 1.92383,-1.81055 z m 30.81055,0.21094 1.69727,0.0898 4.19726,2.14258 4.73047,2.5 4.52539,3.63086 c 0.16482,0.73129 0.33594,1.55664 0.33594,1.55664 l -1.13086,2.77344 c 0,0 -3.05673,2.15056 -3.16992,2.37695 -0.11301,0.2264 -4.86719,2.26367 -4.86719,2.26367 l -4.86719,0.96289 -3.96289,-0.39648 -2.43359,-1.5293 -2.09375,-2.60351 -0.47461,-2.20703 0.2832,-2.63086 2.5,-2.05469 1.96289,-0.44531 0.80469,2.41015 0.44531,2.58985 0.98242,-3.03516 -0.98242,-2.14453 0.0899,-4.64258 z m 55.71484,0 1.42579,1.60742 0.0312,1.58008 -1.73829,7.89648 -2.73828,6.53321 -5.42578,8.35547 -3.87695,4.51757 -5.08789,3.64649 -2.06836,0.24805 -2.31055,-1.79493 1.60938,-1.96484 2.14257,-2.14258 -2.32031,-1.96289 1.07031,-1.42969 1.78516,-2.5 1.07227,-0.35742 -3.92774,1.07227 -1.25,0.53515 0.89258,-3.92773 0.89258,1.96289 0.53515,-4.28516 0.71485,-3.03515 3,-5.85157 4.94726,-3.9707 4.73047,-2.5 4.19727,-2.14258 z m -236.48828,3.40039 0.71875,0.0801 0.48047,1.20117 -0.40039,1.2793 -0.55859,0.24023 -0.48047,-0.74805 -0.22656,-1.58593 z m 26.57617,2.16211 1.92383,1.4707 0.33985,1.69727 -2.15039,1.69922 -1.69727,-0.67969 -0.94531,-1.22461 1.12695,-2.17969 z m -24.33593,0.47851 2.80078,0.32032 2.32226,0.7207 1.28125,0.96094 0.0859,2.5 -4.62695,12.64453 -2.12891,1.6875 -1.7207,0.39844 -3.22461,-1.61133 -0.89258,-2.32227 0.71485,-3.92773 1.60742,-3.39453 5,4.10742 -2.67969,-5.53516 -0.78711,-5.50781 h 0.008 z m 144.21289,0.76563 0.35351,0.1582 -0.0508,0.17774 1.875,2.5 1.60742,-0.71289 0.98243,-0.71485 3.125,2.5 1.875,2.85743 -1.25,2.05273 -0.98633,0.0293 -1.53321,-0.13086 -3.39453,-2.7168 -2.49023,-2.03906 -0.45313,-2.37696 z m 169.45703,0 1.24609,2.60352 0.8125,5.76367 0.15039,13.13086 v 2.05273 l -0.49804,0.625 -0.5,-0.17773 -0.91407,-2.85742 v -1.25 l 0.16407,-0.26758 -1.66211,-6.60742 0.3164,7.5371 -0.0996,1.15625 -1.24023,1.23438 -1.26172,-0.50586 -2.16211,-1.89063 -1.02929,-1.75585 -0.45313,-3.39649 1.35937,-3.50781 1.69727,-4.41602 c 0,0 1.13281,-2.71713 1.13281,-3.16992 0,-0.45282 1.47071,-3.16797 1.47071,-3.16797 z m 31.92383,0.33984 2.15039,0.33985 3.05664,2.49023 0.87305,2.53125 -0.29883,4.56446 -1.02735,1.50781 -2.37695,1.24414 -2.60351,0.33984 -2.60352,-0.79297 -1.01953,-1.92382 -0.11328,-4.52735 1.69726,-3.73633 z m 44.14648,2.49024 h 1.01953 l 0.5918,3.82031 -0.58398,3.09766 -1.9336,3.72265 -1.91992,1.5 -0.34375,-0.0293 -1.13086,-0.67774 -0.79297,-1.92578 0.33985,-4.30078 2.0371,-2.37695 1.81055,-1.69727 z m -358.83984,0.90625 5.43359,0.67969 3.62305,0.33789 3.62305,0.90625 1.58398,1.58398 0.29102,0.58203 0.60156,5.28516 -2.00195,4.54297 -6.03321,2.3125 -6.40429,-1.92188 -6.4043,-5.12305 -3.39649,-4.0371 -0.084,-0.84766 0.45312,-1.58398 1.47071,-1.13282 3.50976,-1.35742 z m 208.99023,0.2207 1.2793,1.28125 0.30859,1.05664 v 2.07813 l -0.99609,7.80859 -5.39453,4.10352 -3.86914,1.17773 -2.34766,-1.3125 -0.5918,-2.05078 2.21485,-3.7207 3.15234,-5.7793 2.08203,-2.7207 1.75977,-1.60157 z m -279.71093,1.00586 5.74023,1.83984 4.7207,2.09766 0.48633,0.53516 -0.16992,1.41406 -1.07617,1.35937 -1.92383,0.56641 -2.94336,-0.33984 -2.80469,-1.13868 -2.85742,-2.58593 -0.13281,-1.98633 0.16015,-1.36133 z m 183.75,0.1875 c 0.25458,0 0.50976,0.0566 0.50976,0.0566 l 1.69727,1.4707 2.00781,2.22071 1.2832,2.15234 0.22656,0.29492 0.5879,2.05664 0.24023,4.64258 -0.48047,3.44141 -0.88086,4.80273 -2.88086,4.48242 -2.16211,2.40235 c 0,0 -4.24257,3.68169 -5.12304,3.60156 -0.88048,-0.0801 -3.68183,1.52149 -4.00196,1.52148 -0.32012,0 -6.24414,0.63868 -6.24414,0.63868 0,0 -2.88104,0.24028 -3.20117,0.16015 -0.32013,-0.0801 -4.80273,-0.48047 -4.80273,-0.48047 l -4.96289,-1.43945 c 0,0 -5.28144,-2.88305 -5.60157,-3.12305 -0.32012,-0.24 -4.08398,-2.40039 -4.08398,-2.40039 l -3.20117,-2.64062 -2.72071,-2.72266 -0.45312,-3.97851 0.39062,-9.29492 -1.66211,6.60742 0.16602,0.26758 v 1.25 l -0.91406,2.85742 -0.5,0.17773 -0.49805,-0.625 v -2.05273 l 0.14453,-12.60547 0.76758,-1.53516 0.67773,-0.33984 2.83008,1.47265 3.39649,2.26368 2.94336,1.35742 4.52734,1.35937 2.83008,1.01953 3.16992,-0.22656 1.35742,0.22656 0.10547,1.89258 -0.7207,2.26758 1.41015,-2.93555 1.69532,-1.22656 2.15039,1.47266 2.37695,0.67969 2.60352,0.45117 2.03906,-0.11133 1.24414,1.58398 -0.11328,-1.01953 0.90625,-0.56445 0.67968,0.45117 -0.45312,3.16992 1.24414,8.15039 0.11328,-11.32031 2.7168,-2.26367 3.16992,-2.60352 1.47266,-3.50976 c 0,0 1.4707,-3.16831 1.4707,-3.6211 0,-0.22639 0.25507,-0.2832 0.50977,-0.2832 z m -87.77149,0.7207 -3.2832,11.44336 0.0957,1.50977 -0.56055,6.20703 -0.52539,3.01953 -0.96679,3.25781 -0.57032,1.38477 -0.40039,0.24023 -0.64062,-0.24023 -1.33203,-2.72266 -0.6543,-3.78515 3.0293,-8.8711 2.77929,-7.47265 z m 360.16602,1.33985 1.60742,3.39453 0.71484,3.92773 -0.89258,2.32227 -3.00781,1.50195 -1.6914,-0.0937 -2.15821,-1.71094 -0.32812,-2.6289 0.79297,-1.35938 1.98632,-2.9082 z m -221.85157,1.22265 c 0.33978,0 2.26368,0.62305 2.26368,0.62305 l 0.78906,0.47266 0.29492,1.2539 0.53516,4.28516 0.89257,-1.96289 0.89258,3.92773 -1.25,-0.53515 -3.92773,-1.07227 1.07226,0.35742 1.78516,2.5 1.07031,1.42969 -2.32031,1.96289 2.14258,2.14258 1.60742,1.96484 -3.21484,2.5 0.17968,2.14258 -1.60742,2.85742 0.11524,3.07617 -1.04688,2.17579 -3.20312,3.36328 -4.00196,1.75976 -6.08203,-0.32031 -5.76367,-2.88086 -2.88086,-3.8418 0.20117,-3.7207 1.76758,-4.34375 2.05469,-4.19531 -0.0898,-4.01758 -2.67773,-1.33984 -1.69727,-2.23242 -0.39062,-3.06446 0.24609,-2.09765 1.2461,-0.50977 2.43359,0.84961 5.43359,0.45117 4.13282,-0.96094 2.99804,-1.30273 c 0,0 3.28334,-1.24416 3.50977,-1.30078 0.22639,-0.0567 2.15064,-0.39649 2.49023,-0.39649 z m 142.29102,0.28321 2.26367,0.79101 0.79297,3.28321 -0.33984,3.39648 c 0,0 -1.21984,2.7576 -1.5,3.07031 -0.30213,0.33725 -2.46289,3.1543 -2.46289,3.1543 l -1.92383,2.26562 -1.58399,-0.22656 -1.64648,-0.97656 -1.60547,-2.15625 -0.99805,-1.96289 0.24805,-3.30469 0.33398,-2.23242 1.4961,-1.42773 0.83203,0.35742 1.82812,2.05273 -0.49804,-1.42773 -0.20313,-1.02735 0.43946,-1.93164 2.0371,-1.35937 z m -372.93945,4.11328 3.05664,0.2832 1.07617,0.22656 0.33984,0.33985 -0.76758,0.91406 -4.16796,1.72461 -10.79102,3.34766 -2.80469,1.27929 -2.46679,0.77149 -0.28321,-0.0566 0.28321,-0.28321 0.4121,-0.35742 11.42188,-6.92383 1.91992,-0.8125 z m 58.82812,0.25195 5.44336,4.32227 2.40039,1.4414 6.08399,2.72071 3.20117,2.72265 2.94531,2.10352 3.13867,3.41797 1.83985,2.48242 0.56054,1.51953 0.40039,1.8418 -0.0801,1.92187 -0.52148,0.7832 -0.95312,0.4004 -2.81055,-0.63477 -0.51953,-0.32227 -0.63282,-1.2832 -3.53515,0.34961 -2.77735,-0.34766 -3.91992,-0.74414 -6.30859,-2.05859 -0.50586,-0.70117 0.39063,-0.41211 0.87304,0.0625 3.15625,-0.70117 -5.17578,-1.05078 -2.43945,0.33789 -0.14844,-0.0449 -0.94922,-0.87695 0.88477,-1.40039 3.41015,-0.11719 -6.69336,-0.69922 h -0.93945 l -2.56445,-1.89843 0.60351,-2.36524 -2.52539,-4.20312 2.91602,-3.86524 3.66992,-2.38086 z m 319.0918,0.95508 1.24414,0.22656 0.45312,1.01758 -1.4707,2.03711 -1.69727,-0.11133 0.56446,-2.15234 z m -259.67774,6.67773 1.01953,0.56641 -0.37304,1.4668 -2.59375,3.48242 -1.91211,0.80273 -2.16016,-0.98242 -1.41406,-1.60742 0.002,0.041 -0.3789,-0.71289 0.67968,-1.35742 1.13282,-0.90625 3.50781,-0.5664 z m 144.66797,0.0566 1.58399,0.50977 0.50976,1.18945 -1.30078,1.24414 -1.75586,0.84961 c 0,0 -1.2442,0.3399 -1.58398,0.28321 -0.33971,-0.0566 -0.50977,-0.90625 -0.50977,-0.90625 l 1.01953,-1.86719 0.9043,-1.07617 z m 193.78125,1.80079 0.51563,0.14843 1.36523,0.74024 6.07031,1.25 1.25,5.35742 h 1.45118 l -7.10352,5.92578 -3.2832,-2.33398 -4.54492,1.63281 3.2832,-6.07031 -0.75781,-3.26953 1.30859,-3.26954 z m -428.75195,0.0117 0.74219,0.1836 1.27539,3.18555 -0.75782,3.26953 3.28321,6.07031 -4.54492,-1.63281 -3.28321,2.33398 -4.47656,-3.73437 -0.85352,-0.95118 -0.20117,-1.76367 0.84766,-3.62695 0.58398,-0.98633 1.07032,-0.50391 4.69726,-0.96679 z m 239.96289,1.22461 4.00195,0.32032 0.21485,0.18359 v 0.043 l 2.05468,4.19531 5.26758,12.94727 4.46289,14.73242 1.60742,5.44531 0.3418,5.89649 -1.0957,2.38476 c 0,0 -2.26401,1.69727 -2.7168,1.69727 -0.45279,0 -3.62304,0.45312 -3.62304,0.45312 l -5.4336,-0.45312 -4.64062,-0.67969 -7.01758,-3.16797 -4.64258,-2.49023 -2.26367,-2.7168 -1.58399,-2.60352 -0.24414,-7.0664 2.50196,-14.07422 3.20312,-7.36328 4.8086,-5.51758 z m -9.34961,2.33985 1.81055,0.0566 0.2832,0.33984 -1.07617,1.69922 -1.92383,1.81055 -1.41406,1.64062 0.16797,2.49024 -1.92383,1.07617 v -2.15039 c 0,-0.2264 -0.96094,-2.54688 -0.96094,-2.54688 l 0.45117,-1.58593 1.47266,-1.52735 1.58398,-1.24609 z m -297.94336,0.70703 1.96289,1.25 v 2.14258 l -3.92773,4.46484 -2.85742,1.42774 -1.42774,-2.32227 3.03516,-4.28516 z m 563.67578,0 3.21485,2.67773 3.03515,4.28516 -1.42773,2.32227 -2.85742,-1.42774 -3.92774,-4.46484 v -2.14258 z m -334.02539,2.63476 0.28125,0.77149 -0.87304,1.60351 -0.60938,0.1875 -0.16016,-1.20117 0.16016,-1.28125 z m 16.74219,8.78516 0.70703,0.0996 2.08008,1.60156 0.64062,1.76172 -1.75976,2.08008 -2.5625,1.28125 -1.32031,-0.61719 0.90429,-2.98437 z m 22.31836,4.42188 1.28125,0.48046 -0.96094,1.92188 -0.96094,-0.16016 -0.48047,-1.28125 z m -318.35547,16.12109 -0.89258,3.92969 -3.21289,3.39258 -9.46484,3.92773 -5.89258,4.10742 -0.71484,-2.85742 2.14257,-1.96289 3.92969,-2.14258 5.17774,-2.5 3.39257,-4.64453 z m 662.96484,0 5.53516,1.25 3.39258,4.64453 5.17773,2.5 3.92969,2.14258 2.14258,1.96289 -0.71485,2.85742 -5.89257,-4.10742 -9.46485,-3.92773 -3.21289,-3.39258 z m -686.89257,14.64453 h 2.14257 l -0.53515,2.14258 -3.92969,2.32031 -4.10547,1.25 -2.14453,-0.89258 2.85742,-1.60742 z m 708.67773,0 h 2.14258 l 5.71484,3.21289 2.85742,1.60742 -2.14453,0.89258 -4.10547,-1.25 -3.92968,-2.32031 z"
       id="path3872"
       inkscape:connector-curvature="0"
       transform="scale(0.26458333)" />
  </g>
</svg>
