<?xml version="1.0" encoding="UTF-8" standalone="no"?>
<!-- Created with Inkscape (http://www.inkscape.org/) -->

<svg
   width="15rem"
   viewBox="0 0 85.310036 17.693359"
   version="1.1"
   id="svg1839"
   sodipodi:docname="drm_urban_logo.svg"
   inkscape:version="1.2 (1:1.2+202206011326+fc4e4096c5)"
   xmlns:inkscape="http://www.inkscape.org/namespaces/inkscape"
   xmlns:sodipodi="http://sodipodi.sourceforge.net/DTD/sodipodi-0.dtd"
   xmlns="http://www.w3.org/2000/svg"
   xmlns:svg="http://www.w3.org/2000/svg">
  <sodipodi:namedview
     id="namedview1841"
     pagecolor="#ffffff"
     bordercolor="#666666"
     borderopacity="1.0"
     inkscape:showpageshadow="2"
     inkscape:pageopacity="0.0"
     inkscape:pagecheckerboard="0"
     inkscape:deskcolor="#d1d1d1"
     inkscape:document-units="mm"
     showgrid="false"
     inkscape:zoom="2"
     inkscape:cx="170.5"
     inkscape:cy="71.75"
     inkscape:window-width="1920"
     inkscape:window-height="1016"
     inkscape:window-x="0"
     inkscape:window-y="0"
     inkscape:window-maximized="1"
     inkscape:current-layer="layer1" />
  <defs
     id="defs1836" />
  <g
     inkscape:label="Layer 1"
     inkscape:groupmode="layer"
     id="layer1"
     transform="translate(-198.38713,-165.65426)">
    <path
       id="path2503"
       style="color:#000000;-inkscape-font-specification:'Uni Sans, Heavy';fill:#ffffff"
       d="M 220.86173 165.65374 L 220.86173 165.65426 C 219.1835 165.65426 217.50393 166.08083 216.17157 166.97563 C 214.95832 166.22133 213.46343 165.88474 211.94393 165.88474 L 205.36603 165.88474 L 205.36603 166.38496 L 205.36603 171.57018 L 201.47273 171.57018 L 198.38661 174.49041 L 201.47273 177.41013 L 205.36603 177.41013 L 205.36603 183.11934 L 211.94031 183.11934 C 213.4778 183.13014 214.9889 182.79589 216.21033 182.03569 C 217.54329 182.92186 219.21636 183.34775 220.8855 183.34775 C 221.59961 183.34775 222.31336 183.26865 223.00061 183.11004 L 223.00061 183.11883 L 228.1512 183.11883 L 228.1512 177.98787 L 231.89103 183.11883 L 232.14528 183.11883 L 232.65274 183.11883 L 237.75837 183.11883 L 238.29374 183.11883 L 237.75837 182.44497 L 237.75837 177.91914 L 237.73512 177.64423 L 238.93401 180.71019 L 242.44026 180.71019 L 243.64122 177.57343 L 243.61383 177.91914 L 243.58851 183.11883 L 248.71946 183.11883 L 249.06311 183.11883 L 250.07286 179.8627 L 253.67471 179.8627 L 254.72891 183.11883 L 255.09995 183.11883 L 260.20558 183.11883 L 260.20558 177.41013 L 260.79521 177.41013 L 264.09216 183.11883 L 269.03346 183.11883 L 269.03346 183.11831 L 273.18411 183.11831 L 273.18411 177.40961 L 280.61105 177.40961 L 283.69717 174.4899 L 280.61105 171.56966 L 273.18411 171.56966 L 273.18411 170.75937 L 277.26604 170.75937 L 277.26604 170.25915 L 277.26604 165.86045 L 263.9516 165.86045 L 263.9516 165.88422 L 263.9516 170.75937 L 263.9516 171.57018 L 263.00437 171.57018 L 259.78958 165.88422 L 255.09995 165.88422 L 255.09995 168.83029 L 254.0473 165.88422 L 253.69383 165.88422 L 249.60209 165.88422 L 248.71946 168.41378 L 248.71946 165.88422 L 243.78591 165.88422 L 241.32973 171.57018 L 240.0342 171.57018 L 237.5868 165.88422 L 232.65274 165.88422 L 232.65274 166.25887 C 231.83466 166.00157 230.93373 165.8837 229.98882 165.8837 L 223.00061 165.88422 L 223.00061 165.89714 C 222.3052 165.73519 221.58311 165.65374 220.86173 165.65374 z M 220.86173 166.6542 C 221.58938 166.6542 222.31564 166.7485 223.00061 166.93067 L 223.00061 169.96407 C 222.97161 169.94507 222.94256 169.92596 222.91276 169.90826 C 222.30092 169.54317 221.55359 169.39253 220.81677 169.39253 C 220.09138 169.39253 219.36514 169.56497 218.77968 169.94134 C 218.69298 169.99704 218.60964 170.05871 218.53009 170.1253 C 218.25144 169.10722 217.72095 168.26719 217.0232 167.62158 C 218.11264 166.98419 219.48182 166.6542 220.86173 166.6542 z M 269.03346 166.86142 L 276.2661 166.86142 L 276.2661 169.75944 L 272.18418 169.75944 L 272.18418 182.11889 L 269.03346 182.11889 L 269.03346 169.75944 L 269.03346 166.86142 z M 206.36597 166.88468 L 211.94393 166.88468 C 213.17822 166.88468 214.36684 167.139 215.3339 167.65 C 214.63185 168.3292 214.10033 169.1896 213.83373 170.20954 C 213.38708 169.87153 212.78737 169.71293 212.08087 169.71293 L 209.49498 169.71293 L 209.49498 179.26738 L 209.99469 179.26738 L 212.08087 179.26738 C 212.78893 179.26738 213.38716 179.10044 213.82856 178.76147 C 214.09787 179.8002 214.64508 180.67613 215.36749 181.36493 C 214.39509 181.87689 213.19382 182.12766 211.94599 182.11889 L 206.36597 182.11889 L 206.36597 166.88468 z M 225.40925 166.88468 L 229.98882 166.88468 C 230.97962 166.88468 231.88153 167.02717 232.65274 167.31772 L 232.65274 176.57969 L 231.9887 176.78691 L 232.65274 177.62304 L 232.65274 182.11889 L 232.39901 182.11889 L 228.63748 176.959 L 228.10418 176.959 L 228.10418 174.42788 L 230.01052 174.42788 C 230.77778 174.42788 231.41647 174.13912 231.8347 173.68943 C 232.25294 173.23974 232.45378 172.65101 232.45378 172.07041 C 232.45378 171.48981 232.25294 170.90262 231.8347 170.45293 C 231.41647 170.00324 230.77778 169.71293 230.01052 169.71293 L 227.75381 169.71293 C 227.36146 168.65103 226.6649 167.78474 225.79373 167.14461 C 225.66928 167.05321 225.54019 166.9675 225.40925 166.88468 z M 234.03508 166.88468 L 236.92845 166.88468 L 240.6724 175.5782 L 244.4422 166.88468 L 247.71952 166.88468 L 247.71952 171.28027 L 244.6024 180.21409 L 244.61377 177.961 L 244.90109 174.24392 L 243.9089 174.07804 L 241.75244 179.71077 L 239.61769 179.71077 L 237.41059 174.06615 L 236.44786 174.25994 L 236.75843 177.96307 L 236.75843 181.18665 L 233.65319 177.27784 L 233.65319 177.18379 C 234.4268 176.81141 235.1143 176.30239 235.58848 175.54668 C 236.20165 174.56944 236.5202 173.29614 236.5202 171.72676 L 236.5202 171.72056 L 236.5202 171.71487 C 236.4717 169.6999 235.73389 168.19291 234.53789 167.23866 C 234.37771 167.11078 234.20935 166.99352 234.03508 166.88519 L 234.03508 166.88468 z M 250.31109 166.88468 L 253.34243 166.88468 L 255.09995 171.80324 L 255.09995 181.01663 L 254.40128 178.86327 L 249.33647 178.86327 L 248.71946 180.85282 L 248.71946 171.44719 L 250.31109 166.88468 z M 256.09989 166.88468 L 259.20719 166.88468 L 262.96923 173.5313 L 264.49266 177.1347 L 264.95154 177.04478 L 264.95154 176.64997 L 264.95154 176.46032 L 264.95154 176.05828 L 264.95154 175.86862 L 264.95154 173.68374 L 264.95154 171.96395 L 264.95154 170.75989 L 268.03352 170.75989 L 268.03352 182.1194 L 264.67197 182.1194 L 261.16056 175.99626 L 259.58805 172.39648 L 259.20512 172.47348 L 259.20512 176.17196 L 259.20512 176.74402 L 259.20512 180.31951 L 256.09989 171.62909 L 256.09989 166.88468 z M 264.95154 166.88519 L 268.03352 166.88519 L 268.03352 169.75944 L 264.95154 169.75944 L 264.95154 166.88519 z M 224.00055 167.27277 C 224.43444 167.45855 224.83917 167.68506 225.20151 167.95128 C 226.35875 168.80149 227.10424 170.02061 227.10424 171.72676 L 227.10424 174.42788 L 227.10424 177.27526 C 227.10424 178.9823 226.36267 180.20307 225.21133 181.0528 C 224.84659 181.322 224.43828 181.55028 224.00055 181.737 L 224.00055 167.27277 z M 233.65319 167.83035 C 233.74229 167.89075 233.8295 167.95318 233.91261 168.01949 C 234.8708 168.784 235.47359 169.94501 235.5182 171.73244 C 235.5172 173.16305 235.22915 174.23991 234.74253 175.01545 C 234.45058 175.48074 234.08784 175.84556 233.65319 176.12391 L 233.65319 167.83035 z M 216.18914 168.21948 C 217.14596 169.01555 217.74874 170.15886 217.74874 171.81822 L 217.74874 177.27526 C 217.74874 178.89274 217.16029 180.01316 216.22325 180.79494 C 215.25272 179.96124 214.64299 178.81603 214.64299 177.27526 L 214.64299 171.72676 C 214.64299 170.18691 215.2386 169.04859 216.18914 168.21948 z M 220.81677 170.39247 L 220.81729 170.39247 C 221.41025 170.39255 222.00429 170.5288 222.40117 170.76558 C 222.73185 170.96286 222.94188 171.24038 222.99803 171.57018 L 218.75436 171.57018 C 218.80976 171.26129 219.00899 170.98388 219.32125 170.78315 C 219.69876 170.54046 220.25821 170.39256 220.81677 170.39247 z M 251.42472 170.4705 L 249.98088 176.21692 L 250.62167 176.21692 L 253.68401 176.21692 L 252.32492 170.4705 L 251.42472 170.4705 z M 210.49492 170.71287 L 212.08087 170.71287 C 212.68823 170.71287 213.06568 170.85875 213.28596 171.0529 C 213.4346 171.1839 213.53417 171.34836 213.58414 171.57018 L 210.49492 171.57018 L 210.49492 170.71287 z M 228.10418 170.71287 L 230.01052 170.71287 C 230.53884 170.71287 230.87237 170.88773 231.10193 171.13455 C 231.20647 171.24696 231.30838 171.42694 231.36703 171.57018 L 228.10418 171.57018 L 228.10418 170.71287 z M 247.71952 174.31368 L 247.71952 182.11889 L 244.99669 182.11889 L 247.71952 174.31368 z M 256.09989 174.60152 L 258.78603 182.11889 L 256.09989 182.11889 L 256.09989 174.60152 z M 210.49492 177.41013 L 213.57587 177.41013 C 213.52327 177.62062 213.42616 177.7825 213.28596 177.91191 C 213.06625 178.11472 212.69555 178.26744 212.08087 178.26744 L 210.49492 178.26744 L 210.49492 177.41013 z M 218.75281 177.41013 L 222.997 177.41013 C 222.9482 177.71629 222.75258 177.97242 222.42494 178.16978 C 222.03941 178.402 221.46351 178.54081 220.88602 178.54081 C 220.3056 178.54081 219.72151 178.40618 219.33107 178.17598 C 218.99192 177.97602 218.79661 177.73408 218.75281 177.41013 z M 218.55489 178.85397 C 218.64029 178.92117 218.73029 178.98219 218.82309 179.03691 C 219.4244 179.39144 220.15888 179.54075 220.8855 179.54075 C 221.61505 179.54075 222.34546 179.38375 222.94015 179.02554 C 222.96055 179.01324 222.98041 178.99978 223.00061 178.98678 L 223.00061 182.07755 C 222.32382 182.25588 221.60611 182.34781 220.8855 182.34781 C 219.51666 182.34781 218.15291 182.01908 217.06196 181.38767 C 217.76171 180.73563 218.28858 179.88476 218.55489 178.85397 z M 233.65319 178.88291 L 236.22306 182.11889 L 233.65319 182.11889 L 233.65319 178.88291 z M 227.15075 180.46679 L 227.15075 182.11889 L 225.42011 182.11889 C 225.55123 182.03569 225.68051 181.94935 225.80509 181.85741 C 226.3258 181.4731 226.78344 181.00721 227.15075 180.46679 z " />
    <g
       id="path1435" />
    <g
       id="path1656" />
    <g
       id="rect1683" />
  </g>
</svg>
